%FSLAX23Y23*%
%MOIN*%
G70*
G01*
G75*
G04 Layer_Color=65535*
%ADD10R,0.050X0.125*%
%ADD11R,0.072X0.039*%
%ADD12O,0.061X0.014*%
%ADD13R,0.024X0.043*%
%ADD14O,0.037X0.010*%
%ADD15O,0.010X0.037*%
%ADD16R,0.094X0.094*%
%ADD17O,0.067X0.014*%
%ADD18O,0.010X0.028*%
%ADD19R,0.075X0.071*%
%ADD20R,0.028X0.012*%
%ADD21R,0.059X0.035*%
%ADD22R,0.035X0.039*%
%ADD23R,0.039X0.035*%
%ADD24R,0.026X0.022*%
%ADD25R,0.031X0.031*%
%ADD26R,0.063X0.031*%
%ADD27R,0.014X0.013*%
%ADD28R,0.045X0.057*%
%ADD29R,0.013X0.014*%
%ADD30R,0.045X0.071*%
%ADD31C,0.010*%
%ADD32C,0.030*%
%ADD33C,0.025*%
%ADD34R,0.101X0.030*%
%ADD35R,0.110X0.070*%
%ADD36R,0.054X0.168*%
%ADD37R,0.032X0.129*%
%ADD38C,0.028*%
%ADD39C,0.030*%
%ADD40C,0.026*%
%ADD41C,0.040*%
%ADD42C,0.048*%
G04:AMPARAMS|DCode=43|XSize=50mil|YSize=50mil|CornerRadius=0mil|HoleSize=0mil|Usage=FLASHONLY|Rotation=0.000|XOffset=0mil|YOffset=0mil|HoleType=Round|Shape=Relief|Width=10mil|Gap=6mil|Entries=4|*
%AMTHD43*
7,0,0,0.050,0.038,0.010,45*
%
%ADD43THD43*%
G04:AMPARAMS|DCode=44|XSize=44.992mil|YSize=44.992mil|CornerRadius=0mil|HoleSize=0mil|Usage=FLASHONLY|Rotation=0.000|XOffset=0mil|YOffset=0mil|HoleType=Round|Shape=Relief|Width=10mil|Gap=6mil|Entries=4|*
%AMTHD44*
7,0,0,0.045,0.033,0.010,45*
%
%ADD44THD44*%
%ADD45C,0.043*%
%ADD46O,0.026X0.010*%
%ADD47O,0.010X0.026*%
%ADD48R,0.102X0.102*%
%ADD49C,0.020*%
%ADD50C,0.024*%
%ADD51C,0.010*%
%ADD52C,0.008*%
%ADD53C,0.004*%
%ADD54C,0.004*%
%ADD55C,0.006*%
%ADD56R,0.750X0.150*%
D49*
X-3468Y1113D02*
G03*
X-3468Y1113I-12J0D01*
G01*
X-3200Y325D02*
G03*
X-3200Y325I-12J0D01*
G01*
X-1568Y1113D02*
G03*
X-1568Y1113I-12J0D01*
G01*
X-550Y325D02*
G03*
X-550Y325I-12J0D01*
G01*
X-2850D02*
G03*
X-2850Y325I-12J0D01*
G01*
X-900D02*
G03*
X-900Y325I-12J0D01*
G01*
D50*
X-1308Y747D02*
G03*
X-1308Y747I-12J0D01*
G01*
X-2773D02*
G03*
X-2773Y747I-12J0D01*
G01*
X-2002Y-629D02*
G03*
X-2002Y-629I-12J0D01*
G01*
X-2013Y266D02*
G03*
X-2013Y266I-12J0D01*
G01*
D51*
X-1400Y791D02*
G03*
X-1400Y791I-5J0D01*
G01*
X-2865D02*
G03*
X-2865Y791I-5J0D01*
G01*
X-641Y748D02*
G03*
X-641Y748I-5J0D01*
G01*
X-2106D02*
G03*
X-2106Y748I-5J0D01*
G01*
X-1797Y757D02*
G03*
X-1797Y757I-5J0D01*
G01*
X-3262D02*
G03*
X-3262Y757I-5J0D01*
G01*
X-2102Y-136D02*
G03*
X-2102Y-136I-5J0D01*
G01*
X-2097Y-576D02*
G03*
X-2097Y-576I-5J0D01*
G01*
X-2092Y-1440D02*
G03*
X-2092Y-1440I-5J0D01*
G01*
X-2391Y-1412D02*
G03*
X-2391Y-1412I-5J0D01*
G01*
X-2106Y310D02*
G03*
X-2106Y310I-5J0D01*
G01*
D52*
X-1359Y586D02*
X-1225D01*
X-1359Y787D02*
X-1225D01*
Y586D02*
Y787D01*
X-1359Y586D02*
Y787D01*
X-2824Y586D02*
X-2690D01*
X-2824Y787D02*
X-2690D01*
Y586D02*
Y787D01*
X-2824Y586D02*
Y787D01*
X-658Y691D02*
Y711D01*
X-776Y691D02*
Y711D01*
X-658D01*
X-776Y691D02*
X-658D01*
X-2123D02*
Y711D01*
X-2241Y691D02*
Y711D01*
X-2123D01*
X-2241Y691D02*
X-2123D01*
X-1814Y700D02*
Y720D01*
X-1932Y700D02*
Y720D01*
X-1814D01*
X-1932Y700D02*
X-1814D01*
X-3279D02*
Y720D01*
X-3397Y700D02*
Y720D01*
X-3279D01*
X-3397Y700D02*
X-3279D01*
X-2073Y-115D02*
Y-94D01*
X-2053D01*
X-1933D02*
X-1912D01*
Y-115D02*
Y-94D01*
Y-256D02*
Y-235D01*
X-1933Y-256D02*
X-1912D01*
X-2073D02*
X-2053D01*
X-2073D02*
Y-235D01*
X-2053Y-850D02*
Y-590D01*
X-1927Y-850D02*
Y-590D01*
X-2053D02*
X-1927D01*
X-2053Y-850D02*
X-1927D01*
X-2081Y-1421D02*
X-2080D01*
X-2081D02*
Y-1381D01*
Y-1339D02*
Y-1299D01*
X-2080D01*
X-1960D02*
X-1959D01*
Y-1339D02*
Y-1299D01*
Y-1421D02*
Y-1381D01*
X-1960Y-1421D02*
X-1959D01*
X-2468Y-1426D02*
X-2429D01*
X-2551D02*
X-2512D01*
X-2551Y-1344D02*
X-2512D01*
X-2468D02*
X-2429D01*
X-1071Y505D02*
X-1063D01*
X-1071Y473D02*
X-1063D01*
X-2536Y505D02*
X-2528D01*
X-2536Y473D02*
X-2528D01*
X-1519Y472D02*
X-1511D01*
X-1519Y504D02*
X-1511D01*
X-2984Y472D02*
X-2976D01*
X-2984Y504D02*
X-2976D01*
X-1002Y767D02*
X-994D01*
X-1002Y799D02*
X-994D01*
X-2467Y767D02*
X-2459D01*
X-2467Y799D02*
X-2459D01*
X-1067Y899D02*
X-1059D01*
X-1067Y867D02*
X-1059D01*
X-2532Y899D02*
X-2524D01*
X-2532Y867D02*
X-2524D01*
X-1522Y867D02*
X-1514D01*
X-1522Y899D02*
X-1514D01*
X-2987Y867D02*
X-2979D01*
X-2987Y899D02*
X-2979D01*
X-1113Y585D02*
Y593D01*
X-1081Y585D02*
Y593D01*
X-2578Y585D02*
Y593D01*
X-2546Y585D02*
Y593D01*
X-1501Y584D02*
Y592D01*
X-1469Y584D02*
Y592D01*
X-2966Y584D02*
Y592D01*
X-2934Y584D02*
Y592D01*
X-1001Y605D02*
X-993D01*
X-1001Y573D02*
X-993D01*
X-2466Y605D02*
X-2458D01*
X-2466Y573D02*
X-2458D01*
X-1589Y604D02*
X-1581D01*
X-1589Y572D02*
X-1581D01*
X-3054Y604D02*
X-3046D01*
X-3054Y572D02*
X-3046D01*
X-1001Y638D02*
X-993D01*
X-1001Y670D02*
X-993D01*
X-2466Y638D02*
X-2458D01*
X-2466Y670D02*
X-2458D01*
X-1589Y669D02*
X-1581D01*
X-1589Y637D02*
X-1581D01*
X-3054Y669D02*
X-3046D01*
X-3054Y637D02*
X-3046D01*
X-1589Y734D02*
X-1581D01*
X-1589Y702D02*
X-1581D01*
X-3054Y734D02*
X-3046D01*
X-3054Y702D02*
X-3046D01*
X-1002Y702D02*
X-994D01*
X-1002Y734D02*
X-994D01*
X-2467Y702D02*
X-2459D01*
X-2467Y734D02*
X-2459D01*
X-1589Y767D02*
X-1581D01*
X-1589Y799D02*
X-1581D01*
X-3054Y767D02*
X-3046D01*
X-3054Y799D02*
X-3046D01*
X-2117Y-331D02*
X-2109D01*
X-2117Y-299D02*
X-2109D01*
X-1877Y-299D02*
X-1869D01*
X-1877Y-331D02*
X-1869D01*
X-1113Y779D02*
Y787D01*
X-1082Y779D02*
Y787D01*
X-2578Y779D02*
Y787D01*
X-2547Y779D02*
Y787D01*
X-1794Y-234D02*
X-1786D01*
X-1794Y-266D02*
X-1786D01*
X-1501Y779D02*
Y787D01*
X-1469Y779D02*
Y787D01*
X-2966Y779D02*
Y787D01*
X-2934Y779D02*
Y787D01*
X-1846Y44D02*
X-1838D01*
X-1846Y76D02*
X-1838D01*
X-2156Y44D02*
X-2148D01*
X-2156Y76D02*
X-2148D01*
X-1751Y154D02*
X-1743D01*
X-1751Y186D02*
X-1743D01*
X-721Y570D02*
X-713D01*
X-721Y602D02*
X-713D01*
X-2186Y570D02*
X-2178D01*
X-2186Y602D02*
X-2178D01*
X-2276Y186D02*
X-2268D01*
X-2276Y154D02*
X-2268D01*
X-2117Y-364D02*
X-2109D01*
X-2117Y-396D02*
X-2109D01*
X-1877Y574D02*
X-1869D01*
X-1877Y606D02*
X-1869D01*
X-3342Y574D02*
X-3334D01*
X-3342Y606D02*
X-3334D01*
X-1877Y-396D02*
X-1869D01*
X-1877Y-364D02*
X-1869D01*
X-1794Y-201D02*
X-1786D01*
X-1794Y-169D02*
X-1786D01*
X-2276Y251D02*
X-2268D01*
X-2276Y219D02*
X-2268D01*
X-1751Y219D02*
X-1743D01*
X-1751Y251D02*
X-1743D01*
X-1846Y366D02*
X-1838D01*
X-1846Y334D02*
X-1838D01*
X-2156Y366D02*
X-2148D01*
X-2156Y334D02*
X-2148D01*
X-2174Y-266D02*
X-2166D01*
X-2174Y-234D02*
X-2166D01*
X-2481Y-89D02*
Y-81D01*
X-2449Y-89D02*
Y-81D01*
X-2449Y86D02*
Y94D01*
X-2481Y86D02*
Y94D01*
X-2089Y-1256D02*
X-2081D01*
X-2089Y-1224D02*
X-2081D01*
X-2089Y-1589D02*
X-2081D01*
X-2089Y-1621D02*
X-2081D01*
X-2587Y-1589D02*
X-2580D01*
X-2587Y-1621D02*
X-2580D01*
X-2026Y-1682D02*
Y-1658D01*
X-2524Y-1682D02*
Y-1658D01*
X-2087Y-1470D02*
X-2083D01*
X-2087Y-1520D02*
X-2083D01*
X-2512Y-1531D02*
X-2468D01*
X-2512Y-1469D02*
X-2468D01*
X-2512Y-1239D02*
X-2468D01*
X-2512Y-1301D02*
X-2468D01*
X-2064Y105D02*
Y305D01*
X-1930Y105D02*
Y305D01*
X-2064D02*
X-1930D01*
X-2064Y105D02*
X-1930D01*
D53*
X-2391Y-1469D02*
X-2209D01*
X-2391D02*
Y-1281D01*
X-2209D01*
Y-1469D02*
Y-1281D01*
D54*
X-2145Y-1705D02*
X-2025D01*
Y-1750D02*
Y-1705D01*
X-2145Y-1750D02*
X-2025D01*
X-2145D02*
Y-1705D01*
X-2646D02*
X-2526D01*
Y-1750D02*
Y-1705D01*
X-2646Y-1750D02*
X-2526D01*
X-2646D02*
Y-1705D01*
X-1308Y808D02*
X-1287D01*
X-1283Y812D01*
Y820D01*
X-1287Y825D01*
X-1308D01*
X-1287Y833D02*
X-1283Y837D01*
Y845D01*
X-1287Y850D01*
X-1303D01*
X-1308Y845D01*
Y837D01*
X-1303Y833D01*
X-1299D01*
X-1295Y837D01*
Y850D01*
X-1278Y858D02*
Y875D01*
X-1283Y883D02*
Y891D01*
Y887D01*
X-1308D01*
X-1303Y883D01*
X-2773Y808D02*
X-2752D01*
X-2748Y812D01*
Y820D01*
X-2752Y825D01*
X-2773D01*
X-2752Y833D02*
X-2748Y837D01*
Y845D01*
X-2752Y850D01*
X-2768D01*
X-2773Y845D01*
Y837D01*
X-2768Y833D01*
X-2764D01*
X-2760Y837D01*
Y850D01*
X-2743Y858D02*
Y875D01*
X-2768Y883D02*
X-2773Y887D01*
Y895D01*
X-2768Y900D01*
X-2752D01*
X-2748Y895D01*
Y887D01*
X-2752Y883D01*
X-2768D01*
X-1703Y844D02*
X-1708Y848D01*
X-1716D01*
X-1720Y844D01*
Y827D01*
X-1716Y823D01*
X-1708D01*
X-1703Y827D01*
X-1678Y823D02*
X-1695D01*
X-1678Y840D01*
Y844D01*
X-1683Y848D01*
X-1691D01*
X-1695Y844D01*
X-1670D02*
X-1666Y848D01*
X-1658D01*
X-1653Y844D01*
Y840D01*
X-1658Y835D01*
X-1662D01*
X-1658D01*
X-1653Y831D01*
Y827D01*
X-1658Y823D01*
X-1666D01*
X-1670Y827D01*
X-1645Y819D02*
X-1628D01*
X-1620Y823D02*
X-1612D01*
X-1616D01*
Y848D01*
X-1620Y844D01*
X-961D02*
X-965Y848D01*
X-973D01*
X-978Y844D01*
Y827D01*
X-973Y823D01*
X-965D01*
X-961Y827D01*
X-936Y823D02*
X-953D01*
X-936Y840D01*
Y844D01*
X-940Y848D01*
X-948D01*
X-953Y844D01*
X-915Y823D02*
Y848D01*
X-928Y835D01*
X-911D01*
X-903Y819D02*
X-886D01*
X-878Y823D02*
X-869D01*
X-873D01*
Y848D01*
X-878Y844D01*
X-1698Y544D02*
X-1703Y548D01*
X-1711D01*
X-1715Y544D01*
Y527D01*
X-1711Y523D01*
X-1703D01*
X-1698Y527D01*
X-1673Y523D02*
X-1690D01*
X-1673Y540D01*
Y544D01*
X-1678Y548D01*
X-1686D01*
X-1690Y544D01*
X-1648Y548D02*
X-1665D01*
Y535D01*
X-1657Y540D01*
X-1653D01*
X-1648Y535D01*
Y527D01*
X-1653Y523D01*
X-1661D01*
X-1665Y527D01*
X-1640Y519D02*
X-1623D01*
X-1615Y523D02*
X-1607D01*
X-1611D01*
Y548D01*
X-1615Y544D01*
X-960Y545D02*
X-964Y549D01*
X-973D01*
X-977Y545D01*
Y528D01*
X-973Y524D01*
X-964D01*
X-960Y528D01*
X-935Y524D02*
X-952D01*
X-935Y541D01*
Y545D01*
X-939Y549D01*
X-948D01*
X-952Y545D01*
X-910Y549D02*
X-918Y545D01*
X-927Y536D01*
Y528D01*
X-923Y524D01*
X-914D01*
X-910Y528D01*
Y532D01*
X-914Y536D01*
X-927D01*
X-902Y520D02*
X-885D01*
X-877Y524D02*
X-869D01*
X-873D01*
Y549D01*
X-877Y545D01*
X-3168Y844D02*
X-3173Y848D01*
X-3181D01*
X-3185Y844D01*
Y827D01*
X-3181Y823D01*
X-3173D01*
X-3168Y827D01*
X-3143Y823D02*
X-3160D01*
X-3143Y840D01*
Y844D01*
X-3148Y848D01*
X-3156D01*
X-3160Y844D01*
X-3135D02*
X-3131Y848D01*
X-3123D01*
X-3118Y844D01*
Y840D01*
X-3123Y835D01*
X-3127D01*
X-3123D01*
X-3118Y831D01*
Y827D01*
X-3123Y823D01*
X-3131D01*
X-3135Y827D01*
X-3110Y819D02*
X-3093D01*
X-3085Y844D02*
X-3081Y848D01*
X-3073D01*
X-3068Y844D01*
Y827D01*
X-3073Y823D01*
X-3081D01*
X-3085Y827D01*
Y844D01*
X-2426D02*
X-2430Y848D01*
X-2438D01*
X-2443Y844D01*
Y827D01*
X-2438Y823D01*
X-2430D01*
X-2426Y827D01*
X-2401Y823D02*
X-2418D01*
X-2401Y840D01*
Y844D01*
X-2405Y848D01*
X-2413D01*
X-2418Y844D01*
X-2380Y823D02*
Y848D01*
X-2393Y835D01*
X-2376D01*
X-2368Y819D02*
X-2351D01*
X-2343Y844D02*
X-2338Y848D01*
X-2330D01*
X-2326Y844D01*
Y827D01*
X-2330Y823D01*
X-2338D01*
X-2343Y827D01*
Y844D01*
X-3163Y544D02*
X-3168Y548D01*
X-3176D01*
X-3180Y544D01*
Y527D01*
X-3176Y523D01*
X-3168D01*
X-3163Y527D01*
X-3138Y523D02*
X-3155D01*
X-3138Y540D01*
Y544D01*
X-3143Y548D01*
X-3151D01*
X-3155Y544D01*
X-3113Y548D02*
X-3130D01*
Y535D01*
X-3122Y540D01*
X-3118D01*
X-3113Y535D01*
Y527D01*
X-3118Y523D01*
X-3126D01*
X-3130Y527D01*
X-3105Y519D02*
X-3088D01*
X-3080Y544D02*
X-3076Y548D01*
X-3068D01*
X-3063Y544D01*
Y527D01*
X-3068Y523D01*
X-3076D01*
X-3080Y527D01*
Y544D01*
X-2425Y545D02*
X-2429Y549D01*
X-2438D01*
X-2442Y545D01*
Y528D01*
X-2438Y524D01*
X-2429D01*
X-2425Y528D01*
X-2400Y524D02*
X-2417D01*
X-2400Y541D01*
Y545D01*
X-2404Y549D01*
X-2413D01*
X-2417Y545D01*
X-2375Y549D02*
X-2383Y545D01*
X-2392Y536D01*
Y528D01*
X-2388Y524D01*
X-2379D01*
X-2375Y528D01*
Y532D01*
X-2379Y536D01*
X-2392D01*
X-2367Y520D02*
X-2350D01*
X-2342Y545D02*
X-2338Y549D01*
X-2329D01*
X-2325Y545D01*
Y528D01*
X-2329Y524D01*
X-2338D01*
X-2342Y528D01*
Y545D01*
X-2153Y-869D02*
X-2158Y-865D01*
X-2166D01*
X-2170Y-869D01*
Y-886D01*
X-2166Y-890D01*
X-2158D01*
X-2153Y-886D01*
X-2145Y-869D02*
X-2141Y-865D01*
X-2133D01*
X-2128Y-869D01*
Y-873D01*
X-2133Y-878D01*
X-2128Y-882D01*
Y-886D01*
X-2133Y-890D01*
X-2141D01*
X-2145Y-886D01*
Y-882D01*
X-2141Y-878D01*
X-2145Y-873D01*
Y-869D01*
X-2141Y-878D02*
X-2133D01*
X-1984Y19D02*
X-1980Y15D01*
X-1972D01*
X-1967Y19D01*
Y36D01*
X-1972Y40D01*
X-1980D01*
X-1984Y36D01*
X-1992Y40D02*
X-2001D01*
X-1997D01*
Y15D01*
X-1992Y19D01*
X-2013D02*
X-2017Y15D01*
X-2026D01*
X-2030Y19D01*
Y36D01*
X-2026Y40D01*
X-2017D01*
X-2013Y36D01*
Y19D01*
X-1994Y-21D02*
X-1990Y-25D01*
X-1982D01*
X-1978Y-21D01*
Y-4D01*
X-1982Y0D01*
X-1990D01*
X-1994Y-4D01*
X-2003Y0D02*
X-2011D01*
X-2007D01*
Y-25D01*
X-2003Y-21D01*
X-2023Y0D02*
X-2032D01*
X-2028D01*
Y-25D01*
X-2023Y-21D01*
X-2336Y301D02*
X-2340Y305D01*
X-2348D01*
X-2352Y301D01*
Y284D01*
X-2348Y280D01*
X-2340D01*
X-2336Y284D01*
X-2327Y280D02*
X-2319D01*
X-2323D01*
Y305D01*
X-2327Y301D01*
X-2290Y280D02*
X-2307D01*
X-2290Y297D01*
Y301D01*
X-2294Y305D01*
X-2302D01*
X-2307Y301D01*
X-1985Y-1260D02*
X-2010D01*
Y-1248D01*
X-2006Y-1243D01*
X-1997D01*
X-1993Y-1248D01*
Y-1260D01*
Y-1252D02*
X-1985Y-1243D01*
X-1989Y-1235D02*
X-1985Y-1231D01*
Y-1223D01*
X-1989Y-1218D01*
X-2006D01*
X-2010Y-1223D01*
Y-1231D01*
X-2006Y-1235D01*
X-2002D01*
X-1997Y-1231D01*
Y-1218D01*
X-2143Y-517D02*
Y-538D01*
X-2139Y-542D01*
X-2131D01*
X-2126Y-538D01*
Y-517D01*
X-2106Y-542D02*
Y-517D01*
X-2118Y-530D01*
X-2101D01*
X-1716Y296D02*
X-1720Y300D01*
X-1728D01*
X-1732Y296D01*
Y279D01*
X-1728Y275D01*
X-1720D01*
X-1716Y279D01*
X-1707Y275D02*
X-1699D01*
X-1703D01*
Y300D01*
X-1707Y296D01*
X-1687D02*
X-1682Y300D01*
X-1674D01*
X-1670Y296D01*
Y292D01*
X-1674Y287D01*
X-1678D01*
X-1674D01*
X-1670Y283D01*
Y279D01*
X-1674Y275D01*
X-1682D01*
X-1687Y279D01*
X-2182Y113D02*
X-2177Y118D01*
Y126D01*
X-2182Y130D01*
X-2198D01*
X-2202Y126D01*
Y118D01*
X-2198Y113D01*
X-2202Y105D02*
Y97D01*
Y101D01*
X-2177D01*
X-2182Y105D01*
X-2202Y72D02*
X-2177D01*
X-2190Y84D01*
Y68D01*
X-1716Y121D02*
X-1720Y125D01*
X-1728D01*
X-1732Y121D01*
Y104D01*
X-1728Y100D01*
X-1720D01*
X-1716Y104D01*
X-1707Y100D02*
X-1699D01*
X-1703D01*
Y125D01*
X-1707Y121D01*
X-1670Y125D02*
X-1687D01*
Y112D01*
X-1678Y117D01*
X-1674D01*
X-1670Y112D01*
Y104D01*
X-1674Y100D01*
X-1682D01*
X-1687Y104D01*
X-2228Y-184D02*
X-2233Y-180D01*
X-2241D01*
X-2245Y-184D01*
Y-201D01*
X-2241Y-205D01*
X-2233D01*
X-2228Y-201D01*
X-2220Y-205D02*
X-2212D01*
X-2216D01*
Y-180D01*
X-2220Y-184D01*
X-2183Y-180D02*
X-2191Y-184D01*
X-2199Y-193D01*
Y-201D01*
X-2195Y-205D01*
X-2187D01*
X-2183Y-201D01*
Y-197D01*
X-2187Y-193D01*
X-2199D01*
X-2228Y-149D02*
X-2233Y-145D01*
X-2241D01*
X-2245Y-149D01*
Y-166D01*
X-2241Y-170D01*
X-2233D01*
X-2228Y-166D01*
X-2220Y-170D02*
X-2212D01*
X-2216D01*
Y-145D01*
X-2220Y-149D01*
X-2199Y-145D02*
X-2183D01*
Y-149D01*
X-2199Y-166D01*
Y-170D01*
X-2455Y-50D02*
X-2480D01*
Y-38D01*
X-2476Y-33D01*
X-2467D01*
X-2463Y-38D01*
Y-50D01*
Y-42D02*
X-2455Y-33D01*
Y-25D02*
Y-17D01*
Y-21D01*
X-2480D01*
X-2476Y-25D01*
Y-4D02*
X-2480Y-0D01*
Y8D01*
X-2476Y12D01*
X-2459D01*
X-2455Y8D01*
Y-0D01*
X-2459Y-4D01*
X-2476D01*
X-2475Y-165D02*
X-2450D01*
Y-177D01*
X-2454Y-182D01*
X-2463D01*
X-2467Y-177D01*
Y-165D01*
Y-173D02*
X-2475Y-182D01*
Y-190D02*
Y-198D01*
Y-194D01*
X-2450D01*
X-2454Y-190D01*
X-2475Y-211D02*
Y-219D01*
Y-215D01*
X-2450D01*
X-2454Y-211D01*
X-2250Y-240D02*
Y-265D01*
X-2262D01*
X-2267Y-261D01*
Y-252D01*
X-2262Y-248D01*
X-2250D01*
X-2258D02*
X-2267Y-240D01*
X-2275D02*
X-2283D01*
X-2279D01*
Y-265D01*
X-2275Y-261D01*
X-2312Y-240D02*
X-2296D01*
X-2312Y-257D01*
Y-261D01*
X-2308Y-265D01*
X-2300D01*
X-2296Y-261D01*
X-2177Y390D02*
Y415D01*
X-2165D01*
X-2161Y411D01*
Y402D01*
X-2165Y398D01*
X-2177D01*
X-2169D02*
X-2161Y390D01*
X-2152D02*
X-2144D01*
X-2148D01*
Y415D01*
X-2152Y411D01*
X-2132D02*
X-2127Y415D01*
X-2119D01*
X-2115Y411D01*
Y407D01*
X-2119Y402D01*
X-2123D01*
X-2119D01*
X-2115Y398D01*
Y394D01*
X-2119Y390D01*
X-2127D01*
X-2132Y394D01*
X-1867Y390D02*
Y415D01*
X-1855D01*
X-1851Y411D01*
Y402D01*
X-1855Y398D01*
X-1867D01*
X-1859D02*
X-1851Y390D01*
X-1842D02*
X-1834D01*
X-1838D01*
Y415D01*
X-1842Y411D01*
X-1809Y390D02*
Y415D01*
X-1822Y402D01*
X-1805D01*
X-1672Y225D02*
Y250D01*
X-1660D01*
X-1656Y246D01*
Y237D01*
X-1660Y233D01*
X-1672D01*
X-1664D02*
X-1656Y225D01*
X-1647D02*
X-1639D01*
X-1643D01*
Y250D01*
X-1647Y246D01*
X-1610Y250D02*
X-1627D01*
Y237D01*
X-1618Y242D01*
X-1614D01*
X-1610Y237D01*
Y229D01*
X-1614Y225D01*
X-1622D01*
X-1627Y229D01*
X-2412Y225D02*
Y250D01*
X-2400D01*
X-2396Y246D01*
Y237D01*
X-2400Y233D01*
X-2412D01*
X-2404D02*
X-2396Y225D01*
X-2387D02*
X-2379D01*
X-2383D01*
Y250D01*
X-2387Y246D01*
X-2350Y250D02*
X-2358Y246D01*
X-2367Y237D01*
Y229D01*
X-2362Y225D01*
X-2354D01*
X-2350Y229D01*
Y233D01*
X-2354Y237D01*
X-2367D01*
X-1715Y-195D02*
Y-170D01*
X-1703D01*
X-1698Y-174D01*
Y-183D01*
X-1703Y-187D01*
X-1715D01*
X-1707D02*
X-1698Y-195D01*
X-1690D02*
X-1682D01*
X-1686D01*
Y-170D01*
X-1690Y-174D01*
X-1669Y-170D02*
X-1653D01*
Y-174D01*
X-1669Y-191D01*
Y-195D01*
X-2017Y350D02*
Y329D01*
X-2013Y325D01*
X-2005D01*
X-2001Y329D01*
Y350D01*
X-1976D02*
X-1984Y346D01*
X-1992Y337D01*
Y329D01*
X-1988Y325D01*
X-1980D01*
X-1976Y329D01*
Y333D01*
X-1980Y337D01*
X-1992D01*
X-1915Y-1430D02*
X-1894D01*
X-1890Y-1426D01*
Y-1418D01*
X-1894Y-1413D01*
X-1915D01*
X-1911Y-1405D02*
X-1915Y-1401D01*
Y-1393D01*
X-1911Y-1388D01*
X-1907D01*
X-1902Y-1393D01*
Y-1397D01*
Y-1393D01*
X-1898Y-1388D01*
X-1894D01*
X-1890Y-1393D01*
Y-1401D01*
X-1894Y-1405D01*
X-2345Y-1510D02*
Y-1489D01*
X-2349Y-1485D01*
X-2357D01*
X-2362Y-1489D01*
Y-1510D01*
X-2370Y-1485D02*
X-2378D01*
X-2374D01*
Y-1510D01*
X-2370Y-1506D01*
X-2182Y-5D02*
Y20D01*
X-2170D01*
X-2166Y16D01*
Y7D01*
X-2170Y3D01*
X-2182D01*
X-2174D02*
X-2166Y-5D01*
X-2141D02*
X-2157D01*
X-2141Y12D01*
Y16D01*
X-2145Y20D01*
X-2153D01*
X-2157Y16D01*
X-2116Y-5D02*
X-2132D01*
X-2116Y12D01*
Y16D01*
X-2120Y20D01*
X-2128D01*
X-2132Y16D01*
X-2185Y-1585D02*
X-2160D01*
Y-1597D01*
X-2164Y-1602D01*
X-2173D01*
X-2177Y-1597D01*
Y-1585D01*
Y-1593D02*
X-2185Y-1602D01*
X-2164Y-1610D02*
X-2160Y-1614D01*
Y-1622D01*
X-2164Y-1627D01*
X-2168D01*
X-2173Y-1622D01*
X-2177Y-1627D01*
X-2181D01*
X-2185Y-1622D01*
Y-1614D01*
X-2181Y-1610D01*
X-2177D01*
X-2173Y-1614D01*
X-2168Y-1610D01*
X-2164D01*
X-2173Y-1614D02*
Y-1622D01*
X-2640Y-1300D02*
X-2665D01*
Y-1288D01*
X-2661Y-1283D01*
X-2652D01*
X-2648Y-1288D01*
Y-1300D01*
Y-1292D02*
X-2640Y-1283D01*
X-2661Y-1275D02*
X-2665Y-1271D01*
Y-1263D01*
X-2661Y-1258D01*
X-2657D01*
X-2652Y-1263D01*
Y-1267D01*
Y-1263D01*
X-2648Y-1258D01*
X-2644D01*
X-2640Y-1263D01*
Y-1271D01*
X-2644Y-1275D01*
X-2595Y-1300D02*
X-2620D01*
Y-1288D01*
X-2616Y-1283D01*
X-2607D01*
X-2603Y-1288D01*
Y-1300D01*
Y-1292D02*
X-2595Y-1283D01*
Y-1258D02*
Y-1275D01*
X-2612Y-1258D01*
X-2616D01*
X-2620Y-1263D01*
Y-1271D01*
X-2616Y-1275D01*
X-2684Y-1590D02*
X-2659D01*
Y-1602D01*
X-2663Y-1607D01*
X-2671D01*
X-2675Y-1602D01*
Y-1590D01*
Y-1598D02*
X-2684Y-1607D01*
Y-1615D02*
Y-1623D01*
Y-1619D01*
X-2659D01*
X-2663Y-1615D01*
X-2160Y-1650D02*
X-2185D01*
Y-1667D01*
X-2160Y-1692D02*
Y-1675D01*
X-2185D01*
Y-1692D01*
X-2173Y-1675D02*
Y-1683D01*
X-2160Y-1700D02*
X-2185D01*
Y-1712D01*
X-2181Y-1717D01*
X-2164D01*
X-2160Y-1712D01*
Y-1700D01*
X-2164Y-1725D02*
X-2160Y-1729D01*
Y-1737D01*
X-2164Y-1742D01*
X-2168D01*
X-2173Y-1737D01*
Y-1733D01*
Y-1737D01*
X-2177Y-1742D01*
X-2181D01*
X-2185Y-1737D01*
Y-1729D01*
X-2181Y-1725D01*
X-2659Y-1650D02*
X-2684D01*
Y-1667D01*
X-2659Y-1692D02*
Y-1675D01*
X-2684D01*
Y-1692D01*
X-2671Y-1675D02*
Y-1683D01*
X-2659Y-1700D02*
X-2684D01*
Y-1712D01*
X-2679Y-1717D01*
X-2663D01*
X-2659Y-1712D01*
Y-1700D01*
X-2684Y-1725D02*
Y-1733D01*
Y-1729D01*
X-2659D01*
X-2663Y-1725D01*
X-2215Y-1510D02*
Y-1485D01*
X-2232D01*
X-2240D02*
X-2248D01*
X-2244D01*
Y-1510D01*
X-2240Y-1506D01*
X-2001Y-1498D02*
X-2005Y-1503D01*
Y-1511D01*
X-2001Y-1515D01*
X-1984D01*
X-1980Y-1511D01*
Y-1503D01*
X-1984Y-1498D01*
X-2005Y-1490D02*
Y-1473D01*
X-2001D01*
X-1984Y-1490D01*
X-1980D01*
X-2171Y-1308D02*
X-2175Y-1313D01*
Y-1321D01*
X-2171Y-1325D01*
X-2154D01*
X-2150Y-1321D01*
Y-1313D01*
X-2154Y-1308D01*
X-2175Y-1283D02*
X-2171Y-1292D01*
X-2162Y-1300D01*
X-2154D01*
X-2150Y-1296D01*
Y-1288D01*
X-2154Y-1283D01*
X-2158D01*
X-2162Y-1288D01*
Y-1300D01*
X-2432Y-1576D02*
X-2427Y-1580D01*
X-2419D01*
X-2415Y-1576D01*
Y-1559D01*
X-2419Y-1555D01*
X-2427D01*
X-2432Y-1559D01*
X-2440Y-1576D02*
X-2444Y-1580D01*
X-2452D01*
X-2457Y-1576D01*
Y-1572D01*
X-2452Y-1567D01*
X-2448D01*
X-2452D01*
X-2457Y-1563D01*
Y-1559D01*
X-2452Y-1555D01*
X-2444D01*
X-2440Y-1559D01*
X-2696Y-1418D02*
X-2700Y-1423D01*
Y-1431D01*
X-2696Y-1435D01*
X-2679D01*
X-2675Y-1431D01*
Y-1423D01*
X-2679Y-1418D01*
X-2675Y-1393D02*
Y-1410D01*
X-2692Y-1393D01*
X-2696D01*
X-2700Y-1398D01*
Y-1406D01*
X-2696Y-1410D01*
X-2377Y-1256D02*
X-2372Y-1260D01*
X-2364D01*
X-2360Y-1256D01*
Y-1239D01*
X-2364Y-1235D01*
X-2372D01*
X-2377Y-1239D01*
X-2385Y-1235D02*
X-2393D01*
X-2389D01*
Y-1260D01*
X-2385Y-1256D01*
X-1898Y-65D02*
Y-44D01*
X-1902Y-40D01*
X-1910D01*
X-1914Y-44D01*
Y-65D01*
X-1939D02*
X-1923D01*
Y-52D01*
X-1931Y-57D01*
X-1935D01*
X-1939Y-52D01*
Y-44D01*
X-1935Y-40D01*
X-1927D01*
X-1923Y-44D01*
X-2188Y-305D02*
Y-330D01*
X-2200D01*
X-2204Y-326D01*
Y-317D01*
X-2200Y-313D01*
X-2188D01*
X-2196D02*
X-2204Y-305D01*
X-2229D02*
X-2213D01*
X-2229Y-322D01*
Y-326D01*
X-2225Y-330D01*
X-2217D01*
X-2213Y-326D01*
X-2254Y-330D02*
X-2246Y-326D01*
X-2238Y-317D01*
Y-309D01*
X-2242Y-305D01*
X-2250D01*
X-2254Y-309D01*
Y-313D01*
X-2250Y-317D01*
X-2238D01*
X-1948Y-300D02*
Y-325D01*
X-1960D01*
X-1964Y-321D01*
Y-312D01*
X-1960Y-308D01*
X-1948D01*
X-1956D02*
X-1964Y-300D01*
X-1989D02*
X-1973D01*
X-1989Y-317D01*
Y-321D01*
X-1985Y-325D01*
X-1977D01*
X-1973Y-321D01*
X-2014Y-325D02*
X-1998D01*
Y-312D01*
X-2006Y-317D01*
X-2010D01*
X-2014Y-312D01*
Y-304D01*
X-2010Y-300D01*
X-2002D01*
X-1998Y-304D01*
X-1715Y-265D02*
Y-240D01*
X-1703D01*
X-1698Y-244D01*
Y-253D01*
X-1703Y-257D01*
X-1715D01*
X-1707D02*
X-1698Y-265D01*
X-1673D02*
X-1690D01*
X-1673Y-248D01*
Y-244D01*
X-1678Y-240D01*
X-1686D01*
X-1690Y-244D01*
X-1653Y-265D02*
Y-240D01*
X-1665Y-253D01*
X-1648D01*
X-1835Y-3D02*
Y22D01*
X-1823D01*
X-1818Y18D01*
Y9D01*
X-1823Y5D01*
X-1835D01*
X-1827D02*
X-1818Y-3D01*
X-1793D02*
X-1810D01*
X-1793Y14D01*
Y18D01*
X-1798Y22D01*
X-1806D01*
X-1810Y18D01*
X-1785D02*
X-1781Y22D01*
X-1773D01*
X-1768Y18D01*
Y14D01*
X-1773Y9D01*
X-1777D01*
X-1773D01*
X-1768Y5D01*
Y1D01*
X-1773Y-3D01*
X-1781D01*
X-1785Y1D01*
X-1672Y160D02*
Y185D01*
X-1660D01*
X-1656Y181D01*
Y172D01*
X-1660Y168D01*
X-1672D01*
X-1664D02*
X-1656Y160D01*
X-1631D02*
X-1647D01*
X-1631Y177D01*
Y181D01*
X-1635Y185D01*
X-1643D01*
X-1647Y181D01*
X-1622Y160D02*
X-1614D01*
X-1618D01*
Y185D01*
X-1622Y181D01*
X-2422Y160D02*
Y185D01*
X-2410D01*
X-2406Y181D01*
Y172D01*
X-2410Y168D01*
X-2422D01*
X-2414D02*
X-2406Y160D01*
X-2381D02*
X-2397D01*
X-2381Y177D01*
Y181D01*
X-2385Y185D01*
X-2393D01*
X-2397Y181D01*
X-2372D02*
X-2368Y185D01*
X-2360D01*
X-2356Y181D01*
Y164D01*
X-2360Y160D01*
X-2368D01*
X-2372Y164D01*
Y181D01*
X-2188Y-370D02*
Y-395D01*
X-2200D01*
X-2204Y-391D01*
Y-382D01*
X-2200Y-378D01*
X-2188D01*
X-2196D02*
X-2204Y-370D01*
X-2213D02*
X-2221D01*
X-2217D01*
Y-395D01*
X-2213Y-391D01*
X-2233Y-374D02*
X-2238Y-370D01*
X-2246D01*
X-2250Y-374D01*
Y-391D01*
X-2246Y-395D01*
X-2238D01*
X-2233Y-391D01*
Y-387D01*
X-2238Y-382D01*
X-2250D01*
X-1948Y-370D02*
Y-395D01*
X-1960D01*
X-1964Y-391D01*
Y-382D01*
X-1960Y-378D01*
X-1948D01*
X-1956D02*
X-1964Y-370D01*
X-1973D02*
X-1981D01*
X-1977D01*
Y-395D01*
X-1973Y-391D01*
X-1993D02*
X-1998Y-395D01*
X-2006D01*
X-2010Y-391D01*
Y-387D01*
X-2006Y-382D01*
X-2010Y-378D01*
Y-374D01*
X-2006Y-370D01*
X-1998D01*
X-1993Y-374D01*
Y-378D01*
X-1998Y-382D01*
X-1993Y-387D01*
Y-391D01*
X-1998Y-382D02*
X-2006D01*
X-3375Y876D02*
X-3379Y880D01*
X-3387D01*
X-3392Y876D01*
Y859D01*
X-3387Y855D01*
X-3379D01*
X-3375Y859D01*
X-3367Y855D02*
X-3358D01*
X-3362D01*
Y880D01*
X-3367Y876D01*
X-3346D02*
X-3342Y880D01*
X-3333D01*
X-3329Y876D01*
Y872D01*
X-3333Y867D01*
X-3329Y863D01*
Y859D01*
X-3333Y855D01*
X-3342D01*
X-3346Y859D01*
Y863D01*
X-3342Y867D01*
X-3346Y872D01*
Y876D01*
X-3342Y867D02*
X-3333D01*
X-3321Y851D02*
X-3304D01*
X-3296Y876D02*
X-3292Y880D01*
X-3283D01*
X-3279Y876D01*
Y859D01*
X-3283Y855D01*
X-3292D01*
X-3296Y859D01*
Y876D01*
X-1910D02*
X-1914Y880D01*
X-1922D01*
X-1927Y876D01*
Y859D01*
X-1922Y855D01*
X-1914D01*
X-1910Y859D01*
X-1902Y855D02*
X-1893D01*
X-1897D01*
Y880D01*
X-1902Y876D01*
X-1881D02*
X-1877Y880D01*
X-1868D01*
X-1864Y876D01*
Y872D01*
X-1868Y867D01*
X-1864Y863D01*
Y859D01*
X-1868Y855D01*
X-1877D01*
X-1881Y859D01*
Y863D01*
X-1877Y867D01*
X-1881Y872D01*
Y876D01*
X-1877Y867D02*
X-1868D01*
X-1856Y851D02*
X-1839D01*
X-1831Y855D02*
X-1822D01*
X-1827D01*
Y880D01*
X-1831Y876D01*
X-2217D02*
X-2221Y880D01*
X-2229D01*
X-2234Y876D01*
Y859D01*
X-2229Y855D01*
X-2221D01*
X-2217Y859D01*
X-2209Y855D02*
X-2200D01*
X-2205D01*
Y880D01*
X-2209Y876D01*
X-2188Y859D02*
X-2184Y855D01*
X-2175D01*
X-2171Y859D01*
Y876D01*
X-2175Y880D01*
X-2184D01*
X-2188Y876D01*
Y872D01*
X-2184Y867D01*
X-2171D01*
X-2163Y851D02*
X-2146D01*
X-2138Y876D02*
X-2134Y880D01*
X-2125D01*
X-2121Y876D01*
Y859D01*
X-2125Y855D01*
X-2134D01*
X-2138Y859D01*
Y876D01*
X-752D02*
X-756Y880D01*
X-764D01*
X-769Y876D01*
Y859D01*
X-764Y855D01*
X-756D01*
X-752Y859D01*
X-744Y855D02*
X-735D01*
X-740D01*
Y880D01*
X-744Y876D01*
X-723Y859D02*
X-719Y855D01*
X-710D01*
X-706Y859D01*
Y876D01*
X-710Y880D01*
X-719D01*
X-723Y876D01*
Y872D01*
X-719Y867D01*
X-706D01*
X-698Y851D02*
X-681D01*
X-673Y855D02*
X-665D01*
X-669D01*
Y880D01*
X-673Y876D01*
X-2800Y510D02*
X-2804Y514D01*
X-2812D01*
X-2817Y510D01*
Y493D01*
X-2812Y489D01*
X-2804D01*
X-2800Y493D01*
X-2775Y489D02*
X-2792D01*
X-2775Y506D01*
Y510D01*
X-2779Y514D01*
X-2787D01*
X-2792Y510D01*
X-2750Y489D02*
X-2767D01*
X-2750Y506D01*
Y510D01*
X-2754Y514D01*
X-2762D01*
X-2767Y510D01*
X-2742Y485D02*
X-2725D01*
X-2717Y510D02*
X-2712Y514D01*
X-2704D01*
X-2700Y510D01*
Y493D01*
X-2704Y489D01*
X-2712D01*
X-2717Y493D01*
Y510D01*
X-1335D02*
X-1339Y514D01*
X-1347D01*
X-1352Y510D01*
Y493D01*
X-1347Y489D01*
X-1339D01*
X-1335Y493D01*
X-1310Y489D02*
X-1327D01*
X-1310Y506D01*
Y510D01*
X-1314Y514D01*
X-1322D01*
X-1327Y510D01*
X-1285Y489D02*
X-1302D01*
X-1285Y506D01*
Y510D01*
X-1289Y514D01*
X-1297D01*
X-1302Y510D01*
X-1277Y485D02*
X-1260D01*
X-1252Y489D02*
X-1243D01*
X-1247D01*
Y514D01*
X-1252Y510D01*
X-3392Y525D02*
Y550D01*
X-3379D01*
X-3375Y546D01*
Y537D01*
X-3379Y533D01*
X-3392D01*
X-3383D02*
X-3375Y525D01*
X-3367D02*
X-3358D01*
X-3362D01*
Y550D01*
X-3367Y546D01*
X-3346D02*
X-3342Y550D01*
X-3333D01*
X-3329Y546D01*
Y542D01*
X-3333Y537D01*
X-3329Y533D01*
Y529D01*
X-3333Y525D01*
X-3342D01*
X-3346Y529D01*
Y533D01*
X-3342Y537D01*
X-3346Y542D01*
Y546D01*
X-3342Y537D02*
X-3333D01*
X-3321Y521D02*
X-3304D01*
X-3296Y546D02*
X-3292Y550D01*
X-3283D01*
X-3279Y546D01*
Y529D01*
X-3283Y525D01*
X-3292D01*
X-3296Y529D01*
Y546D01*
X-1927Y525D02*
Y550D01*
X-1914D01*
X-1910Y546D01*
Y537D01*
X-1914Y533D01*
X-1927D01*
X-1918D02*
X-1910Y525D01*
X-1902D02*
X-1893D01*
X-1897D01*
Y550D01*
X-1902Y546D01*
X-1881D02*
X-1877Y550D01*
X-1868D01*
X-1864Y546D01*
Y542D01*
X-1868Y537D01*
X-1864Y533D01*
Y529D01*
X-1868Y525D01*
X-1877D01*
X-1881Y529D01*
Y533D01*
X-1877Y537D01*
X-1881Y542D01*
Y546D01*
X-1877Y537D02*
X-1868D01*
X-1856Y521D02*
X-1839D01*
X-1831Y525D02*
X-1822D01*
X-1827D01*
Y550D01*
X-1831Y546D01*
X-2244Y520D02*
Y545D01*
X-2231D01*
X-2227Y541D01*
Y532D01*
X-2231Y528D01*
X-2244D01*
X-2235D02*
X-2227Y520D01*
X-2202D02*
X-2219D01*
X-2202Y537D01*
Y541D01*
X-2206Y545D01*
X-2215D01*
X-2219Y541D01*
X-2194D02*
X-2190Y545D01*
X-2181D01*
X-2177Y541D01*
Y524D01*
X-2181Y520D01*
X-2190D01*
X-2194Y524D01*
Y541D01*
X-2169Y516D02*
X-2152D01*
X-2144Y541D02*
X-2140Y545D01*
X-2131D01*
X-2127Y541D01*
Y524D01*
X-2131Y520D01*
X-2140D01*
X-2144Y524D01*
Y541D01*
X-779Y520D02*
Y545D01*
X-766D01*
X-762Y541D01*
Y532D01*
X-766Y528D01*
X-779D01*
X-770D02*
X-762Y520D01*
X-737D02*
X-754D01*
X-737Y537D01*
Y541D01*
X-741Y545D01*
X-750D01*
X-754Y541D01*
X-729D02*
X-725Y545D01*
X-716D01*
X-712Y541D01*
Y524D01*
X-716Y520D01*
X-725D01*
X-729Y524D01*
Y541D01*
X-704Y516D02*
X-687D01*
X-679Y520D02*
X-670D01*
X-675D01*
Y545D01*
X-679Y541D01*
X-2907Y816D02*
Y841D01*
X-2895D01*
X-2890Y837D01*
Y828D01*
X-2895Y824D01*
X-2907D01*
X-2899D02*
X-2890Y816D01*
X-2865D02*
X-2882D01*
X-2865Y833D01*
Y837D01*
X-2870Y841D01*
X-2878D01*
X-2882Y837D01*
X-2857D02*
X-2853Y841D01*
X-2845D01*
X-2840Y837D01*
Y833D01*
X-2845Y828D01*
X-2849D01*
X-2845D01*
X-2840Y824D01*
Y820D01*
X-2845Y816D01*
X-2853D01*
X-2857Y820D01*
X-2832Y812D02*
X-2815D01*
X-2807Y837D02*
X-2803Y841D01*
X-2795D01*
X-2790Y837D01*
Y820D01*
X-2795Y816D01*
X-2803D01*
X-2807Y820D01*
Y837D01*
X-1440Y816D02*
Y841D01*
X-1428D01*
X-1423Y837D01*
Y828D01*
X-1428Y824D01*
X-1440D01*
X-1432D02*
X-1423Y816D01*
X-1398D02*
X-1415D01*
X-1398Y833D01*
Y837D01*
X-1403Y841D01*
X-1411D01*
X-1415Y837D01*
X-1390D02*
X-1386Y841D01*
X-1378D01*
X-1373Y837D01*
Y833D01*
X-1378Y828D01*
X-1382D01*
X-1378D01*
X-1373Y824D01*
Y820D01*
X-1378Y816D01*
X-1386D01*
X-1390Y820D01*
X-1365Y812D02*
X-1348D01*
X-1340Y816D02*
X-1332D01*
X-1336D01*
Y841D01*
X-1340Y837D01*
X-2718Y808D02*
Y833D01*
X-2705D01*
X-2701Y829D01*
Y820D01*
X-2705Y816D01*
X-2718D01*
X-2709D02*
X-2701Y808D01*
X-2676D02*
X-2693D01*
X-2676Y825D01*
Y829D01*
X-2680Y833D01*
X-2688D01*
X-2693Y829D01*
X-2655Y808D02*
Y833D01*
X-2668Y820D01*
X-2651D01*
X-2643Y804D02*
X-2626D01*
X-2618Y829D02*
X-2613Y833D01*
X-2605D01*
X-2601Y829D01*
Y812D01*
X-2605Y808D01*
X-2613D01*
X-2618Y812D01*
Y829D01*
X-1253Y808D02*
Y833D01*
X-1240D01*
X-1236Y829D01*
Y820D01*
X-1240Y816D01*
X-1253D01*
X-1244D02*
X-1236Y808D01*
X-1211D02*
X-1228D01*
X-1211Y825D01*
Y829D01*
X-1215Y833D01*
X-1223D01*
X-1228Y829D01*
X-1190Y808D02*
Y833D01*
X-1203Y820D01*
X-1186D01*
X-1178Y804D02*
X-1161D01*
X-1153Y808D02*
X-1144D01*
X-1148D01*
Y833D01*
X-1153Y829D01*
X-3245Y773D02*
Y798D01*
X-3233D01*
X-3228Y794D01*
Y785D01*
X-3233Y781D01*
X-3245D01*
X-3237D02*
X-3228Y773D01*
X-3203D02*
X-3220D01*
X-3203Y790D01*
Y794D01*
X-3208Y798D01*
X-3216D01*
X-3220Y794D01*
X-3195Y798D02*
X-3178D01*
Y794D01*
X-3195Y777D01*
Y773D01*
X-3170Y769D02*
X-3153D01*
X-3145Y794D02*
X-3141Y798D01*
X-3133D01*
X-3128Y794D01*
Y777D01*
X-3133Y773D01*
X-3141D01*
X-3145Y777D01*
Y794D01*
X-1780Y773D02*
Y798D01*
X-1768D01*
X-1763Y794D01*
Y785D01*
X-1768Y781D01*
X-1780D01*
X-1772D02*
X-1763Y773D01*
X-1738D02*
X-1755D01*
X-1738Y790D01*
Y794D01*
X-1743Y798D01*
X-1751D01*
X-1755Y794D01*
X-1730Y798D02*
X-1713D01*
Y794D01*
X-1730Y777D01*
Y773D01*
X-1705Y769D02*
X-1688D01*
X-1680Y773D02*
X-1672D01*
X-1676D01*
Y798D01*
X-1680Y794D01*
X-2383Y703D02*
Y728D01*
X-2370D01*
X-2366Y724D01*
Y715D01*
X-2370Y711D01*
X-2383D01*
X-2374D02*
X-2366Y703D01*
X-2358Y724D02*
X-2353Y728D01*
X-2345D01*
X-2341Y724D01*
Y720D01*
X-2345Y715D01*
X-2349D01*
X-2345D01*
X-2341Y711D01*
Y707D01*
X-2345Y703D01*
X-2353D01*
X-2358Y707D01*
X-2333Y703D02*
X-2324D01*
X-2328D01*
Y728D01*
X-2333Y724D01*
X-2312Y699D02*
X-2295D01*
X-2287Y724D02*
X-2283Y728D01*
X-2274D01*
X-2270Y724D01*
Y707D01*
X-2274Y703D01*
X-2283D01*
X-2287Y707D01*
Y724D01*
X-918Y703D02*
Y728D01*
X-905D01*
X-901Y724D01*
Y715D01*
X-905Y711D01*
X-918D01*
X-909D02*
X-901Y703D01*
X-893Y724D02*
X-888Y728D01*
X-880D01*
X-876Y724D01*
Y720D01*
X-880Y715D01*
X-884D01*
X-880D01*
X-876Y711D01*
Y707D01*
X-880Y703D01*
X-888D01*
X-893Y707D01*
X-868Y703D02*
X-859D01*
X-863D01*
Y728D01*
X-868Y724D01*
X-847Y699D02*
X-830D01*
X-822Y703D02*
X-813D01*
X-818D01*
Y728D01*
X-822Y724D01*
X-3245Y708D02*
Y733D01*
X-3233D01*
X-3228Y729D01*
Y720D01*
X-3233Y716D01*
X-3245D01*
X-3237D02*
X-3228Y708D01*
X-3220Y729D02*
X-3216Y733D01*
X-3208D01*
X-3203Y729D01*
Y725D01*
X-3208Y720D01*
X-3212D01*
X-3208D01*
X-3203Y716D01*
Y712D01*
X-3208Y708D01*
X-3216D01*
X-3220Y712D01*
X-3195Y729D02*
X-3191Y733D01*
X-3183D01*
X-3178Y729D01*
Y725D01*
X-3183Y720D01*
X-3187D01*
X-3183D01*
X-3178Y716D01*
Y712D01*
X-3183Y708D01*
X-3191D01*
X-3195Y712D01*
X-3170Y704D02*
X-3153D01*
X-3145Y729D02*
X-3141Y733D01*
X-3133D01*
X-3128Y729D01*
Y712D01*
X-3133Y708D01*
X-3141D01*
X-3145Y712D01*
Y729D01*
X-1780Y708D02*
Y733D01*
X-1768D01*
X-1763Y729D01*
Y720D01*
X-1768Y716D01*
X-1780D01*
X-1772D02*
X-1763Y708D01*
X-1755Y729D02*
X-1751Y733D01*
X-1743D01*
X-1738Y729D01*
Y725D01*
X-1743Y720D01*
X-1747D01*
X-1743D01*
X-1738Y716D01*
Y712D01*
X-1743Y708D01*
X-1751D01*
X-1755Y712D01*
X-1730Y729D02*
X-1726Y733D01*
X-1718D01*
X-1713Y729D01*
Y725D01*
X-1718Y720D01*
X-1722D01*
X-1718D01*
X-1713Y716D01*
Y712D01*
X-1718Y708D01*
X-1726D01*
X-1730Y712D01*
X-1705Y704D02*
X-1688D01*
X-1680Y708D02*
X-1672D01*
X-1676D01*
Y733D01*
X-1680Y729D01*
X-3245Y643D02*
Y668D01*
X-3233D01*
X-3228Y664D01*
Y655D01*
X-3233Y651D01*
X-3245D01*
X-3237D02*
X-3228Y643D01*
X-3220Y664D02*
X-3216Y668D01*
X-3208D01*
X-3203Y664D01*
Y660D01*
X-3208Y655D01*
X-3212D01*
X-3208D01*
X-3203Y651D01*
Y647D01*
X-3208Y643D01*
X-3216D01*
X-3220Y647D01*
X-3178Y668D02*
X-3195D01*
Y655D01*
X-3187Y660D01*
X-3183D01*
X-3178Y655D01*
Y647D01*
X-3183Y643D01*
X-3191D01*
X-3195Y647D01*
X-3170Y639D02*
X-3153D01*
X-3145Y664D02*
X-3141Y668D01*
X-3133D01*
X-3128Y664D01*
Y647D01*
X-3133Y643D01*
X-3141D01*
X-3145Y647D01*
Y664D01*
X-1780Y643D02*
Y668D01*
X-1768D01*
X-1763Y664D01*
Y655D01*
X-1768Y651D01*
X-1780D01*
X-1772D02*
X-1763Y643D01*
X-1755Y664D02*
X-1751Y668D01*
X-1743D01*
X-1738Y664D01*
Y660D01*
X-1743Y655D01*
X-1747D01*
X-1743D01*
X-1738Y651D01*
Y647D01*
X-1743Y643D01*
X-1751D01*
X-1755Y647D01*
X-1713Y668D02*
X-1730D01*
Y655D01*
X-1722Y660D01*
X-1718D01*
X-1713Y655D01*
Y647D01*
X-1718Y643D01*
X-1726D01*
X-1730Y647D01*
X-1705Y639D02*
X-1688D01*
X-1680Y643D02*
X-1672D01*
X-1676D01*
Y668D01*
X-1680Y664D01*
X-2382Y644D02*
Y669D01*
X-2369D01*
X-2365Y665D01*
Y656D01*
X-2369Y652D01*
X-2382D01*
X-2373D02*
X-2365Y644D01*
X-2357Y665D02*
X-2353Y669D01*
X-2344D01*
X-2340Y665D01*
Y661D01*
X-2344Y656D01*
X-2348D01*
X-2344D01*
X-2340Y652D01*
Y648D01*
X-2344Y644D01*
X-2353D01*
X-2357Y648D01*
X-2315Y669D02*
X-2323Y665D01*
X-2332Y656D01*
Y648D01*
X-2328Y644D01*
X-2319D01*
X-2315Y648D01*
Y652D01*
X-2319Y656D01*
X-2332D01*
X-2307Y640D02*
X-2290D01*
X-2282Y665D02*
X-2278Y669D01*
X-2269D01*
X-2265Y665D01*
Y648D01*
X-2269Y644D01*
X-2278D01*
X-2282Y648D01*
Y665D01*
X-917Y644D02*
Y669D01*
X-904D01*
X-900Y665D01*
Y656D01*
X-904Y652D01*
X-917D01*
X-908D02*
X-900Y644D01*
X-892Y665D02*
X-888Y669D01*
X-879D01*
X-875Y665D01*
Y661D01*
X-879Y656D01*
X-883D01*
X-879D01*
X-875Y652D01*
Y648D01*
X-879Y644D01*
X-888D01*
X-892Y648D01*
X-850Y669D02*
X-858Y665D01*
X-867Y656D01*
Y648D01*
X-863Y644D01*
X-854D01*
X-850Y648D01*
Y652D01*
X-854Y656D01*
X-867D01*
X-842Y640D02*
X-825D01*
X-817Y644D02*
X-809D01*
X-813D01*
Y669D01*
X-817Y665D01*
X-3245Y578D02*
Y603D01*
X-3233D01*
X-3228Y599D01*
Y590D01*
X-3233Y586D01*
X-3245D01*
X-3237D02*
X-3228Y578D01*
X-3220Y599D02*
X-3216Y603D01*
X-3208D01*
X-3203Y599D01*
Y595D01*
X-3208Y590D01*
X-3212D01*
X-3208D01*
X-3203Y586D01*
Y582D01*
X-3208Y578D01*
X-3216D01*
X-3220Y582D01*
X-3195D02*
X-3191Y578D01*
X-3183D01*
X-3178Y582D01*
Y599D01*
X-3183Y603D01*
X-3191D01*
X-3195Y599D01*
Y595D01*
X-3191Y590D01*
X-3178D01*
X-3170Y574D02*
X-3153D01*
X-3145Y599D02*
X-3141Y603D01*
X-3133D01*
X-3128Y599D01*
Y582D01*
X-3133Y578D01*
X-3141D01*
X-3145Y582D01*
Y599D01*
X-1780Y578D02*
Y603D01*
X-1768D01*
X-1763Y599D01*
Y590D01*
X-1768Y586D01*
X-1780D01*
X-1772D02*
X-1763Y578D01*
X-1755Y599D02*
X-1751Y603D01*
X-1743D01*
X-1738Y599D01*
Y595D01*
X-1743Y590D01*
X-1747D01*
X-1743D01*
X-1738Y586D01*
Y582D01*
X-1743Y578D01*
X-1751D01*
X-1755Y582D01*
X-1730D02*
X-1726Y578D01*
X-1718D01*
X-1713Y582D01*
Y599D01*
X-1718Y603D01*
X-1726D01*
X-1730Y599D01*
Y595D01*
X-1726Y590D01*
X-1713D01*
X-1705Y574D02*
X-1688D01*
X-1680Y578D02*
X-1672D01*
X-1676D01*
Y603D01*
X-1680Y599D01*
X-2382Y579D02*
Y604D01*
X-2369D01*
X-2365Y600D01*
Y591D01*
X-2369Y587D01*
X-2382D01*
X-2373D02*
X-2365Y579D01*
X-2344D02*
Y604D01*
X-2357Y591D01*
X-2340D01*
X-2332Y600D02*
X-2328Y604D01*
X-2319D01*
X-2315Y600D01*
Y583D01*
X-2319Y579D01*
X-2328D01*
X-2332Y583D01*
Y600D01*
X-2307Y575D02*
X-2290D01*
X-2282Y600D02*
X-2278Y604D01*
X-2269D01*
X-2265Y600D01*
Y583D01*
X-2269Y579D01*
X-2278D01*
X-2282Y583D01*
Y600D01*
X-917Y579D02*
Y604D01*
X-904D01*
X-900Y600D01*
Y591D01*
X-904Y587D01*
X-917D01*
X-908D02*
X-900Y579D01*
X-879D02*
Y604D01*
X-892Y591D01*
X-875D01*
X-867Y600D02*
X-863Y604D01*
X-854D01*
X-850Y600D01*
Y583D01*
X-854Y579D01*
X-863D01*
X-867Y583D01*
Y600D01*
X-842Y575D02*
X-825D01*
X-817Y579D02*
X-809D01*
X-813D01*
Y604D01*
X-817Y600D01*
X-2912Y539D02*
Y564D01*
X-2899D01*
X-2895Y560D01*
Y551D01*
X-2899Y547D01*
X-2912D01*
X-2903D02*
X-2895Y539D01*
X-2874D02*
Y564D01*
X-2887Y551D01*
X-2870D01*
X-2862Y560D02*
X-2857Y564D01*
X-2849D01*
X-2845Y560D01*
Y556D01*
X-2849Y551D01*
X-2853D01*
X-2849D01*
X-2845Y547D01*
Y543D01*
X-2849Y539D01*
X-2857D01*
X-2862Y543D01*
X-2837Y535D02*
X-2820D01*
X-2812Y560D02*
X-2807Y564D01*
X-2799D01*
X-2795Y560D01*
Y543D01*
X-2799Y539D01*
X-2807D01*
X-2812Y543D01*
Y560D01*
X-1447Y539D02*
Y564D01*
X-1434D01*
X-1430Y560D01*
Y551D01*
X-1434Y547D01*
X-1447D01*
X-1438D02*
X-1430Y539D01*
X-1409D02*
Y564D01*
X-1422Y551D01*
X-1405D01*
X-1397Y560D02*
X-1392Y564D01*
X-1384D01*
X-1380Y560D01*
Y556D01*
X-1384Y551D01*
X-1388D01*
X-1384D01*
X-1380Y547D01*
Y543D01*
X-1384Y539D01*
X-1392D01*
X-1397Y543D01*
X-1372Y535D02*
X-1355D01*
X-1347Y539D02*
X-1338D01*
X-1342D01*
Y564D01*
X-1347Y560D01*
X-2722Y539D02*
Y564D01*
X-2709D01*
X-2705Y560D01*
Y551D01*
X-2709Y547D01*
X-2722D01*
X-2713D02*
X-2705Y539D01*
X-2684D02*
Y564D01*
X-2697Y551D01*
X-2680D01*
X-2659Y539D02*
Y564D01*
X-2672Y551D01*
X-2655D01*
X-2647Y535D02*
X-2630D01*
X-2622Y560D02*
X-2618Y564D01*
X-2609D01*
X-2605Y560D01*
Y543D01*
X-2609Y539D01*
X-2618D01*
X-2622Y543D01*
Y560D01*
X-1257Y539D02*
Y564D01*
X-1244D01*
X-1240Y560D01*
Y551D01*
X-1244Y547D01*
X-1257D01*
X-1248D02*
X-1240Y539D01*
X-1219D02*
Y564D01*
X-1232Y551D01*
X-1215D01*
X-1194Y539D02*
Y564D01*
X-1207Y551D01*
X-1190D01*
X-1182Y535D02*
X-1165D01*
X-1157Y539D02*
X-1149D01*
X-1153D01*
Y564D01*
X-1157Y560D01*
X-3176Y875D02*
Y900D01*
X-3163D01*
X-3159Y896D01*
Y887D01*
X-3163Y883D01*
X-3176D01*
X-3167D02*
X-3159Y875D01*
X-3134Y900D02*
X-3151D01*
Y887D01*
X-3142Y891D01*
X-3138D01*
X-3134Y887D01*
Y879D01*
X-3138Y875D01*
X-3147D01*
X-3151Y879D01*
X-3113Y875D02*
Y900D01*
X-3126Y887D01*
X-3109D01*
X-3101Y871D02*
X-3084D01*
X-3076Y896D02*
X-3072Y900D01*
X-3063D01*
X-3059Y896D01*
Y879D01*
X-3063Y875D01*
X-3072D01*
X-3076Y879D01*
Y896D01*
X-1711Y875D02*
Y900D01*
X-1698D01*
X-1694Y896D01*
Y887D01*
X-1698Y883D01*
X-1711D01*
X-1702D02*
X-1694Y875D01*
X-1669Y900D02*
X-1686D01*
Y887D01*
X-1677Y891D01*
X-1673D01*
X-1669Y887D01*
Y879D01*
X-1673Y875D01*
X-1682D01*
X-1686Y879D01*
X-1648Y875D02*
Y900D01*
X-1661Y887D01*
X-1644D01*
X-1636Y871D02*
X-1619D01*
X-1611Y875D02*
X-1602D01*
X-1607D01*
Y900D01*
X-1611Y896D01*
X-2453Y873D02*
Y898D01*
X-2440D01*
X-2436Y894D01*
Y885D01*
X-2440Y881D01*
X-2453D01*
X-2444D02*
X-2436Y873D01*
X-2411Y898D02*
X-2428D01*
Y885D01*
X-2419Y890D01*
X-2415D01*
X-2411Y885D01*
Y877D01*
X-2415Y873D01*
X-2423D01*
X-2428Y877D01*
X-2386Y898D02*
X-2403D01*
Y885D01*
X-2394Y890D01*
X-2390D01*
X-2386Y885D01*
Y877D01*
X-2390Y873D01*
X-2398D01*
X-2403Y877D01*
X-2378Y869D02*
X-2361D01*
X-2353Y894D02*
X-2348Y898D01*
X-2340D01*
X-2336Y894D01*
Y877D01*
X-2340Y873D01*
X-2348D01*
X-2353Y877D01*
Y894D01*
X-988Y873D02*
Y898D01*
X-975D01*
X-971Y894D01*
Y885D01*
X-975Y881D01*
X-988D01*
X-979D02*
X-971Y873D01*
X-946Y898D02*
X-963D01*
Y885D01*
X-954Y890D01*
X-950D01*
X-946Y885D01*
Y877D01*
X-950Y873D01*
X-958D01*
X-963Y877D01*
X-921Y898D02*
X-938D01*
Y885D01*
X-929Y890D01*
X-925D01*
X-921Y885D01*
Y877D01*
X-925Y873D01*
X-933D01*
X-938Y877D01*
X-913Y869D02*
X-896D01*
X-888Y873D02*
X-879D01*
X-883D01*
Y898D01*
X-888Y894D01*
X-2383Y773D02*
Y798D01*
X-2370D01*
X-2366Y794D01*
Y785D01*
X-2370Y781D01*
X-2383D01*
X-2374D02*
X-2366Y773D01*
X-2341Y798D02*
X-2358D01*
Y785D01*
X-2349Y790D01*
X-2345D01*
X-2341Y785D01*
Y777D01*
X-2345Y773D01*
X-2353D01*
X-2358Y777D01*
X-2333Y794D02*
X-2328Y798D01*
X-2320D01*
X-2316Y794D01*
Y790D01*
X-2320Y785D01*
X-2316Y781D01*
Y777D01*
X-2320Y773D01*
X-2328D01*
X-2333Y777D01*
Y781D01*
X-2328Y785D01*
X-2333Y790D01*
Y794D01*
X-2328Y785D02*
X-2320D01*
X-2308Y769D02*
X-2291D01*
X-2283Y794D02*
X-2278Y798D01*
X-2270D01*
X-2266Y794D01*
Y777D01*
X-2270Y773D01*
X-2278D01*
X-2283Y777D01*
Y794D01*
X-918Y773D02*
Y798D01*
X-905D01*
X-901Y794D01*
Y785D01*
X-905Y781D01*
X-918D01*
X-909D02*
X-901Y773D01*
X-876Y798D02*
X-893D01*
Y785D01*
X-884Y790D01*
X-880D01*
X-876Y785D01*
Y777D01*
X-880Y773D01*
X-888D01*
X-893Y777D01*
X-868Y794D02*
X-863Y798D01*
X-855D01*
X-851Y794D01*
Y790D01*
X-855Y785D01*
X-851Y781D01*
Y777D01*
X-855Y773D01*
X-863D01*
X-868Y777D01*
Y781D01*
X-863Y785D01*
X-868Y790D01*
Y794D01*
X-863Y785D02*
X-855D01*
X-843Y769D02*
X-826D01*
X-818Y773D02*
X-809D01*
X-813D01*
Y798D01*
X-818Y794D01*
X-3175Y473D02*
Y498D01*
X-3163D01*
X-3158Y494D01*
Y485D01*
X-3163Y481D01*
X-3175D01*
X-3167D02*
X-3158Y473D01*
X-3133Y498D02*
X-3150D01*
Y485D01*
X-3142Y490D01*
X-3138D01*
X-3133Y485D01*
Y477D01*
X-3138Y473D01*
X-3146D01*
X-3150Y477D01*
X-3125D02*
X-3121Y473D01*
X-3113D01*
X-3108Y477D01*
Y494D01*
X-3113Y498D01*
X-3121D01*
X-3125Y494D01*
Y490D01*
X-3121Y485D01*
X-3108D01*
X-3100Y469D02*
X-3083D01*
X-3075Y494D02*
X-3071Y498D01*
X-3063D01*
X-3058Y494D01*
Y477D01*
X-3063Y473D01*
X-3071D01*
X-3075Y477D01*
Y494D01*
X-1710Y473D02*
Y498D01*
X-1698D01*
X-1693Y494D01*
Y485D01*
X-1698Y481D01*
X-1710D01*
X-1702D02*
X-1693Y473D01*
X-1668Y498D02*
X-1685D01*
Y485D01*
X-1677Y490D01*
X-1673D01*
X-1668Y485D01*
Y477D01*
X-1673Y473D01*
X-1681D01*
X-1685Y477D01*
X-1660D02*
X-1656Y473D01*
X-1648D01*
X-1643Y477D01*
Y494D01*
X-1648Y498D01*
X-1656D01*
X-1660Y494D01*
Y490D01*
X-1656Y485D01*
X-1643D01*
X-1635Y469D02*
X-1618D01*
X-1610Y473D02*
X-1602D01*
X-1606D01*
Y498D01*
X-1610Y494D01*
X-2457Y479D02*
Y504D01*
X-2444D01*
X-2440Y500D01*
Y491D01*
X-2444Y487D01*
X-2457D01*
X-2448D02*
X-2440Y479D01*
X-2415Y504D02*
X-2423Y500D01*
X-2432Y491D01*
Y483D01*
X-2428Y479D01*
X-2419D01*
X-2415Y483D01*
Y487D01*
X-2419Y491D01*
X-2432D01*
X-2407Y500D02*
X-2403Y504D01*
X-2394D01*
X-2390Y500D01*
Y483D01*
X-2394Y479D01*
X-2403D01*
X-2407Y483D01*
Y500D01*
X-2382Y475D02*
X-2365D01*
X-2357Y500D02*
X-2353Y504D01*
X-2344D01*
X-2340Y500D01*
Y483D01*
X-2344Y479D01*
X-2353D01*
X-2357Y483D01*
Y500D01*
X-992Y479D02*
Y504D01*
X-979D01*
X-975Y500D01*
Y491D01*
X-979Y487D01*
X-992D01*
X-983D02*
X-975Y479D01*
X-950Y504D02*
X-958Y500D01*
X-967Y491D01*
Y483D01*
X-963Y479D01*
X-954D01*
X-950Y483D01*
Y487D01*
X-954Y491D01*
X-967D01*
X-942Y500D02*
X-938Y504D01*
X-929D01*
X-925Y500D01*
Y483D01*
X-929Y479D01*
X-938D01*
X-942Y483D01*
Y500D01*
X-917Y475D02*
X-900D01*
X-892Y479D02*
X-884D01*
X-888D01*
Y504D01*
X-892Y500D01*
X-3447Y660D02*
X-3426D01*
X-3422Y664D01*
Y672D01*
X-3426Y677D01*
X-3447D01*
Y702D02*
Y685D01*
X-3434D01*
X-3438Y693D01*
Y697D01*
X-3434Y702D01*
X-3426D01*
X-3422Y697D01*
Y689D01*
X-3426Y685D01*
X-3417Y710D02*
Y727D01*
X-3442Y735D02*
X-3447Y739D01*
Y747D01*
X-3442Y752D01*
X-3426D01*
X-3422Y747D01*
Y739D01*
X-3426Y735D01*
X-3442D01*
X-1982Y660D02*
X-1961D01*
X-1957Y664D01*
Y672D01*
X-1961Y677D01*
X-1982D01*
Y702D02*
Y685D01*
X-1969D01*
X-1973Y693D01*
Y697D01*
X-1969Y702D01*
X-1961D01*
X-1957Y697D01*
Y689D01*
X-1961Y685D01*
X-1952Y710D02*
Y727D01*
X-1957Y735D02*
Y743D01*
Y739D01*
X-1982D01*
X-1977Y735D01*
X-2109Y635D02*
X-2088D01*
X-2084Y639D01*
Y647D01*
X-2088Y652D01*
X-2109D01*
X-2105Y660D02*
X-2109Y664D01*
Y672D01*
X-2105Y677D01*
X-2101D01*
X-2096Y672D01*
X-2092Y677D01*
X-2088D01*
X-2084Y672D01*
Y664D01*
X-2088Y660D01*
X-2092D01*
X-2096Y664D01*
X-2101Y660D01*
X-2105D01*
X-2096Y664D02*
Y672D01*
X-2080Y685D02*
Y702D01*
X-2105Y710D02*
X-2109Y714D01*
Y722D01*
X-2105Y727D01*
X-2088D01*
X-2084Y722D01*
Y714D01*
X-2088Y710D01*
X-2105D01*
X-607Y724D02*
X-628D01*
X-632Y720D01*
Y712D01*
X-628Y707D01*
X-607D01*
X-611Y699D02*
X-607Y695D01*
Y687D01*
X-611Y682D01*
X-615D01*
X-620Y687D01*
X-624Y682D01*
X-628D01*
X-632Y687D01*
Y695D01*
X-628Y699D01*
X-624D01*
X-620Y695D01*
X-615Y699D01*
X-611D01*
X-620Y695D02*
Y687D01*
X-636Y674D02*
Y657D01*
X-632Y649D02*
Y641D01*
Y645D01*
X-607D01*
X-611Y649D01*
X-1967Y-566D02*
X-1962Y-570D01*
X-1954D01*
X-1950Y-566D01*
Y-549D01*
X-1954Y-545D01*
X-1962D01*
X-1967Y-549D01*
X-1975D02*
X-1979Y-545D01*
X-1987D01*
X-1992Y-549D01*
Y-566D01*
X-1987Y-570D01*
X-1979D01*
X-1975Y-566D01*
Y-562D01*
X-1979Y-557D01*
X-1992D01*
X-2113Y-1740D02*
X-2130D01*
X-2113Y-1723D01*
Y-1719D01*
X-2118Y-1715D01*
X-2126D01*
X-2130Y-1719D01*
X-2105Y-1740D02*
Y-1736D01*
X-2101D01*
Y-1740D01*
X-2105D01*
X-2068Y-1715D02*
X-2084D01*
Y-1728D01*
X-2076Y-1723D01*
X-2072D01*
X-2068Y-1728D01*
Y-1736D01*
X-2072Y-1740D01*
X-2080D01*
X-2084Y-1736D01*
X-2059Y-1715D02*
Y-1732D01*
X-2051Y-1740D01*
X-2043Y-1732D01*
Y-1715D01*
X-2615D02*
X-2631D01*
Y-1728D01*
X-2623Y-1723D01*
X-2619D01*
X-2615Y-1728D01*
Y-1736D01*
X-2619Y-1740D01*
X-2627D01*
X-2631Y-1736D01*
X-2607Y-1740D02*
Y-1736D01*
X-2602D01*
Y-1740D01*
X-2607D01*
X-2586Y-1719D02*
X-2582Y-1715D01*
X-2573D01*
X-2569Y-1719D01*
Y-1736D01*
X-2573Y-1740D01*
X-2582D01*
X-2586Y-1736D01*
Y-1719D01*
X-2561Y-1715D02*
Y-1732D01*
X-2552Y-1740D01*
X-2544Y-1732D01*
Y-1715D01*
D55*
X-1573Y1080D02*
X-1587D01*
X-1580D01*
Y1047D01*
X-1587Y1040D01*
X-1593D01*
X-1600Y1047D01*
X-1533Y1040D02*
X-1560D01*
X-1533Y1067D01*
Y1073D01*
X-1540Y1080D01*
X-1553D01*
X-1560Y1073D01*
X-3458Y1100D02*
X-3472D01*
X-3465D01*
Y1067D01*
X-3472Y1060D01*
X-3478D01*
X-3485Y1067D01*
X-3445Y1060D02*
X-3432D01*
X-3438D01*
Y1100D01*
X-3445Y1093D01*
X-3443Y365D02*
X-3457D01*
X-3450D01*
Y332D01*
X-3457Y325D01*
X-3463D01*
X-3470Y332D01*
X-3403Y325D02*
X-3430D01*
X-3403Y352D01*
Y358D01*
X-3410Y365D01*
X-3423D01*
X-3430Y358D01*
X-3390Y365D02*
X-3363D01*
X-3377D01*
Y325D01*
X-1950Y-1530D02*
Y-1510D01*
X-1940Y-1500D01*
X-1930Y-1510D01*
Y-1530D01*
Y-1515D01*
X-1950D01*
X-1920Y-1530D02*
Y-1500D01*
X-1905D01*
X-1900Y-1505D01*
Y-1515D01*
X-1905Y-1520D01*
X-1920D01*
X-1890Y-1530D02*
X-1880D01*
X-1885D01*
Y-1500D01*
X-1890Y-1505D01*
X-1845Y-1530D02*
X-1865D01*
X-1845Y-1510D01*
Y-1505D01*
X-1850Y-1500D01*
X-1860D01*
X-1865Y-1505D01*
X-1815Y-1530D02*
X-1835D01*
X-1815Y-1510D01*
Y-1505D01*
X-1820Y-1500D01*
X-1830D01*
X-1835Y-1505D01*
X-1805D02*
X-1800Y-1500D01*
X-1790D01*
X-1785Y-1505D01*
Y-1525D01*
X-1790Y-1530D01*
X-1800D01*
X-1805Y-1525D01*
Y-1505D01*
X-1775Y-1535D02*
X-1755D01*
X-1745Y-1530D02*
Y-1500D01*
X-1735Y-1510D01*
X-1725Y-1500D01*
Y-1530D01*
X-1715D02*
Y-1510D01*
X-1705Y-1500D01*
X-1695Y-1510D01*
Y-1530D01*
Y-1515D01*
X-1715D01*
X-1665Y-1505D02*
X-1670Y-1500D01*
X-1680D01*
X-1685Y-1505D01*
Y-1525D01*
X-1680Y-1530D01*
X-1670D01*
X-1665Y-1525D01*
X-1655Y-1500D02*
Y-1530D01*
Y-1515D01*
X-1635D01*
Y-1500D01*
Y-1530D01*
X-1625Y-1500D02*
X-1605Y-1530D01*
Y-1500D02*
X-1625Y-1530D01*
X-1580Y-1500D02*
X-1590D01*
X-1595Y-1505D01*
Y-1525D01*
X-1590Y-1530D01*
X-1580D01*
X-1575Y-1525D01*
Y-1505D01*
X-1580Y-1500D01*
X-1545Y-1530D02*
X-1565D01*
X-1545Y-1510D01*
Y-1505D01*
X-1550Y-1500D01*
X-1560D01*
X-1565Y-1505D01*
X-1535Y-1535D02*
X-1515D01*
X-1505Y-1530D02*
Y-1510D01*
X-1495Y-1500D01*
X-1485Y-1510D01*
Y-1530D01*
Y-1515D01*
X-1505D01*
X-1475Y-1505D02*
X-1470Y-1500D01*
X-1460D01*
X-1455Y-1505D01*
Y-1525D01*
X-1460Y-1530D01*
X-1470D01*
X-1475Y-1525D01*
Y-1505D01*
X-1950Y-1580D02*
Y-1560D01*
X-1940Y-1550D01*
X-1930Y-1560D01*
Y-1580D01*
Y-1565D01*
X-1950D01*
X-1920Y-1580D02*
Y-1575D01*
X-1915D01*
Y-1580D01*
X-1920D01*
X-1865Y-1550D02*
Y-1580D01*
Y-1565D01*
X-1845D01*
Y-1550D01*
Y-1580D01*
X-1830D02*
X-1820D01*
X-1815Y-1575D01*
Y-1565D01*
X-1820Y-1560D01*
X-1830D01*
X-1835Y-1565D01*
Y-1575D01*
X-1830Y-1580D01*
X-1800D02*
X-1790D01*
X-1785Y-1575D01*
Y-1565D01*
X-1790Y-1560D01*
X-1800D01*
X-1805Y-1565D01*
Y-1575D01*
X-1800Y-1580D01*
X-1755Y-1550D02*
Y-1580D01*
X-1770D01*
X-1775Y-1575D01*
Y-1565D01*
X-1770Y-1560D01*
X-1755D01*
X-1715Y-1565D02*
X-1695D01*
X-1635Y-1550D02*
X-1655D01*
Y-1565D01*
X-1645D01*
X-1655D01*
Y-1580D01*
X-1625Y-1550D02*
Y-1580D01*
X-1605D01*
X-1595Y-1550D02*
X-1585D01*
X-1590D01*
Y-1580D01*
X-1595D01*
X-1585D01*
X-1570D02*
Y-1550D01*
X-1555D01*
X-1550Y-1555D01*
Y-1565D01*
X-1555Y-1570D01*
X-1570D01*
X-1560D02*
X-1550Y-1580D01*
X-1490Y-1550D02*
X-1510D01*
Y-1580D01*
X-1490D01*
X-1510Y-1565D02*
X-1500D01*
X-1465Y-1550D02*
X-1475D01*
X-1480Y-1555D01*
Y-1575D01*
X-1475Y-1580D01*
X-1465D01*
X-1460Y-1575D01*
Y-1555D01*
X-1465Y-1550D01*
X-1430Y-1555D02*
X-1435Y-1550D01*
X-1445D01*
X-1450Y-1555D01*
Y-1575D01*
X-1445Y-1580D01*
X-1435D01*
X-1430Y-1575D01*
X-1370Y-1580D02*
X-1390D01*
X-1370Y-1560D01*
Y-1555D01*
X-1375Y-1550D01*
X-1385D01*
X-1390Y-1555D01*
X-1360D02*
X-1355Y-1550D01*
X-1345D01*
X-1340Y-1555D01*
Y-1575D01*
X-1345Y-1580D01*
X-1355D01*
X-1360Y-1575D01*
Y-1555D01*
X-1330Y-1580D02*
X-1320D01*
X-1325D01*
Y-1550D01*
X-1330Y-1555D01*
X-1305D02*
X-1300Y-1550D01*
X-1290D01*
X-1285Y-1555D01*
Y-1560D01*
X-1290Y-1565D01*
X-1295D01*
X-1290D01*
X-1285Y-1570D01*
Y-1575D01*
X-1290Y-1580D01*
X-1300D01*
X-1305Y-1575D01*
X-793Y365D02*
X-807D01*
X-800D01*
Y332D01*
X-807Y325D01*
X-813D01*
X-820Y332D01*
X-753Y365D02*
X-780D01*
Y345D01*
X-767Y352D01*
X-760D01*
X-753Y345D01*
Y332D01*
X-760Y325D01*
X-773D01*
X-780Y332D01*
X-740Y365D02*
X-713D01*
X-727D01*
Y325D01*
X-3093Y365D02*
X-3107D01*
X-3100D01*
Y332D01*
X-3107Y325D01*
X-3113D01*
X-3120Y332D01*
X-3060Y325D02*
Y365D01*
X-3080Y345D01*
X-3053D01*
X-3040Y365D02*
X-3013D01*
X-3027D01*
Y325D01*
X-1143Y365D02*
X-1157D01*
X-1150D01*
Y332D01*
X-1157Y325D01*
X-1163D01*
X-1170Y332D01*
X-1130Y358D02*
X-1123Y365D01*
X-1110D01*
X-1103Y358D01*
Y352D01*
X-1110Y345D01*
X-1117D01*
X-1110D01*
X-1103Y338D01*
Y332D01*
X-1110Y325D01*
X-1123D01*
X-1130Y332D01*
X-1090Y365D02*
X-1063D01*
X-1077D01*
Y325D01*
D56*
X-1575Y-1675D02*
D03*
M02*
