M48
;Layer_Color=9474304
;FILE_FORMAT=2:3
INCH,LZ
;TYPE=PLATED
T1F00S00C0.013
T2F00S00C0.018
%
T01
X-02044Y-0136
X-01996
X-02016Y-00199
X-01969
X-0249Y-01385
X-02016Y-00151
X-01969
X-02002Y00752
Y00799
X-02049
Y00752
T02
X-0072Y-0165
X-0063
Y-0155
X-0072
X-00675Y-0145
X-0072Y-0135
X-0063
Y-0125
X-0072
X-00675Y-0115
X-0072Y-0105
X-0063
Y-0095
X-0072
X-00675Y-0085
X-0072Y-0075
X-0063
Y-0065
X-0072
X-00675Y-0055
X-0063Y-0045
X-0072
Y-0035
X-0063
X-00675Y-0025
X-0098
X-0107
Y-0035
X-0098
X-01025Y-0045
X-0107Y-0055
X-0098
Y-0065
X-0107
X-01025Y-0075
X-0107Y-0085
X-0098
Y-0095
X-0107
X-01025Y-0105
X-0107Y-0115
X-0098
Y-0125
X-0107
X-01025Y-0135
X-0107Y-0145
X-0098
Y-0155
X-0107
Y-0165
X-0098
X-02Y-0167
X-01995Y-01465
X-0217Y-01495
X-02125Y-0135
X-02084Y-01301
X-0199Y-0125
X-0204Y-0088
X-01825Y-00865
X-0172Y-0068
X-0168Y-00705
X-01755Y-00635
X-018Y-006
X-01865Y-00555
X-01775Y-0038
Y-00315
X-01695Y-0025
Y-00185
X-01975Y-00325
X-02012Y-00353
X-0221Y-0038
Y-00315
X-02265Y-0025
X-0219Y-00205
X-0238Y-015
X-02489Y-015
X-02488Y-01442
X-02606Y-01409
X-02605Y-015
X-02605Y-01555
X-0265Y-0146
X-0265Y-0129
X-02605Y-0129
X-0255Y-01205
X-02389Y-01385
X-02455Y-01605
X-02495
Y-0167
X-0293Y-0165
X-0302
Y-0155
X-0293
X-02975Y-0145
X-0302Y-0135
X-0293
X-02975Y-0125
X-0302Y-0115
X-0293
Y-0105
X-0302
X-02975Y-0095
X-0302Y-0085
X-0293
Y-0075
X-0302
X-03025Y-0065
X-0302Y-0055
X-0293
Y-0045
X-0302
X-03025Y-0035
X-02925
X-0293Y-0025
X-0302
X-0328
X-0337
Y-0035
X-0328
X-03325Y-0045
X-0337Y-0055
X-0328
Y-0065
X-0337
Y-0075
X-0328
X-03325Y-0085
X-0337Y-0095
X-0328
Y-0105
X-0337
Y-0115
X-0328
X-03325Y-0125
X-0337Y-0135
X-0328
Y-0145
X-0337
Y-0155
X-0328
X-03325Y-0165
X-0275Y-0055
Y-0045
Y-0025
Y-0015
X-0293
X-0302
Y-0005
X-0293
Y0005
X-0302
Y0015
X-02975Y0013
X-0293Y0015
Y0025
X-03017Y00432
X-03087Y00518
X-03165Y00685
X-0324Y00757
X-03349Y00871
X-033Y0105
X-034
X-031Y01
X-03087Y00843
X-02821Y00549
X-02691
X-02424Y00534
X-0242Y0084
X-0252Y00127
Y0005
Y-0005
Y-00125
X-0328Y-0015
X-0337
X-03325Y-0005
X-0337Y0005
X-0328
Y0015
X-0337
Y0025
X-0328
X-02305Y0029
X-02295Y0052
X-02296Y00576
X-02303Y00746
X-02345Y0078
X-0238Y00805
X-02345Y00885
X-02256Y00889
X-0219Y0089
X-0215Y0092
X-0212Y0088
X-02085Y00905
X-02105Y0095
X-0193Y0092
X-01884Y00871
X-01805Y0083
X-01775Y00755
X-01715Y0092
X-01622Y00843
X-01622Y00518
X-01705Y0049
X-01785Y0048
X-0188Y00475
X-01996Y00581
X-02085Y00565
X-0211Y00475
X-02181Y00652
X-0225Y00075
X-0222Y0
X-02115
X-02055Y0007
X-0194
X-01945Y-0005
X-0188Y-0
X-0181Y-00125
X-01735Y00065
X-0173Y00115
X-0172Y00315
X-01415Y00435
X-01356Y00549
X-01226
X-00959Y00534
X-0098Y0025
X-0107
Y0015
X-0098
Y0005
X-0107
Y-0005
X-0098
X-01025Y-0015
X-00955Y0084
X-013Y0105
X-01425Y01
X-015Y0105
X-0219Y-0014
X-0222Y-00175
X-0231Y-0005
X-0072
X-0063
Y-0015
X-0072
Y0005
X-0063
Y0015
X-0072
Y0025
X-0063
X-00632Y00748
X-00793
X-00814Y00586
X-012Y01425
X-013
X-014
X-031
X-032
X-033
X-034
M30
