%FSLAX23Y23*%
%MOIN*%
G70*
G01*
G75*
G04 Layer_Color=32896*
%ADD10R,0.050X0.125*%
%ADD11R,0.072X0.039*%
%ADD12O,0.061X0.014*%
%ADD13R,0.024X0.043*%
%ADD14O,0.037X0.010*%
%ADD15O,0.010X0.037*%
%ADD16R,0.094X0.094*%
%ADD17O,0.067X0.014*%
%ADD18O,0.010X0.028*%
%ADD19R,0.075X0.071*%
%ADD20R,0.028X0.012*%
%ADD21R,0.059X0.035*%
%ADD22R,0.035X0.039*%
%ADD23R,0.039X0.035*%
%ADD24R,0.026X0.022*%
%ADD25R,0.031X0.031*%
%ADD26R,0.063X0.031*%
%ADD27R,0.014X0.013*%
%ADD28R,0.045X0.057*%
%ADD29R,0.013X0.014*%
%ADD30R,0.045X0.071*%
%ADD31C,0.010*%
%ADD32C,0.030*%
%ADD33C,0.025*%
%ADD34R,0.101X0.030*%
%ADD35R,0.110X0.070*%
%ADD36R,0.054X0.168*%
%ADD37R,0.032X0.129*%
%ADD38C,0.028*%
%ADD39C,0.030*%
%ADD40C,0.026*%
%ADD41C,0.040*%
%ADD42C,0.048*%
G04:AMPARAMS|DCode=43|XSize=50mil|YSize=50mil|CornerRadius=0mil|HoleSize=0mil|Usage=FLASHONLY|Rotation=0.000|XOffset=0mil|YOffset=0mil|HoleType=Round|Shape=Relief|Width=10mil|Gap=6mil|Entries=4|*
%AMTHD43*
7,0,0,0.050,0.038,0.010,45*
%
%ADD43THD43*%
G04:AMPARAMS|DCode=44|XSize=44.992mil|YSize=44.992mil|CornerRadius=0mil|HoleSize=0mil|Usage=FLASHONLY|Rotation=0.000|XOffset=0mil|YOffset=0mil|HoleType=Round|Shape=Relief|Width=10mil|Gap=6mil|Entries=4|*
%AMTHD44*
7,0,0,0.045,0.033,0.010,45*
%
%ADD44THD44*%
%ADD45C,0.043*%
%ADD46O,0.026X0.010*%
%ADD47O,0.010X0.026*%
%ADD48R,0.102X0.102*%
%ADD49C,0.020*%
%ADD50C,0.024*%
%ADD51C,0.010*%
%ADD52C,0.008*%
%ADD53C,0.004*%
%ADD54C,0.004*%
%ADD55C,0.006*%
%ADD56R,0.750X0.150*%
%ADD57R,0.058X0.133*%
%ADD58R,0.080X0.047*%
%ADD59O,0.069X0.022*%
%ADD60R,0.029X0.048*%
%ADD61O,0.045X0.018*%
%ADD62O,0.018X0.045*%
%ADD63R,0.102X0.102*%
%ADD64O,0.075X0.022*%
%ADD65O,0.018X0.036*%
%ADD66R,0.083X0.079*%
%ADD67R,0.036X0.020*%
%ADD68R,0.067X0.043*%
%ADD69R,0.043X0.047*%
%ADD70R,0.047X0.043*%
%ADD71R,0.034X0.030*%
%ADD72R,0.039X0.039*%
%ADD73R,0.071X0.039*%
%ADD74R,0.022X0.021*%
%ADD75R,0.053X0.065*%
%ADD76R,0.021X0.022*%
%ADD77R,0.053X0.079*%
%ADD78O,0.034X0.018*%
%ADD79O,0.018X0.034*%
%ADD80R,0.110X0.110*%
D49*
X-776Y325D02*
G03*
X-776Y325I-12J0D01*
G01*
X-3076D02*
G03*
X-3076Y325I-12J0D01*
G01*
X-1126D02*
G03*
X-1126Y325I-12J0D01*
G01*
X-3426D02*
G03*
X-3426Y325I-12J0D01*
G01*
D51*
X-1907Y825D02*
G03*
X-1907Y825I-5J0D01*
G01*
D52*
X-1945Y836D02*
Y856D01*
X-1966D02*
X-1945D01*
X-2106D02*
X-2086D01*
X-2106Y836D02*
Y856D01*
Y695D02*
Y716D01*
Y695D02*
X-2086D01*
X-1966D02*
X-1945D01*
Y716D01*
X-2240Y802D02*
Y810D01*
X-2272Y802D02*
Y810D01*
X-2247Y667D02*
Y675D01*
X-2215Y667D02*
Y675D01*
X-2207Y802D02*
Y810D01*
X-2175Y802D02*
Y810D01*
X-2280Y667D02*
Y675D01*
X-2312Y667D02*
Y675D01*
X-2088Y606D02*
X-2084D01*
X-2088Y655D02*
X-2084D01*
D54*
X-2286Y596D02*
X-2311D01*
Y583D01*
X-2307Y579D01*
X-2298D01*
X-2294Y583D01*
Y596D01*
Y587D02*
X-2286Y579D01*
Y554D02*
Y571D01*
X-2302Y554D01*
X-2307D01*
X-2311Y558D01*
Y567D01*
X-2307Y571D01*
Y546D02*
X-2311Y542D01*
Y533D01*
X-2307Y529D01*
X-2302D01*
X-2298Y533D01*
X-2294Y529D01*
X-2290D01*
X-2286Y533D01*
Y542D01*
X-2290Y546D01*
X-2294D01*
X-2298Y542D01*
X-2302Y546D01*
X-2307D01*
X-2298Y542D02*
Y533D01*
X-2041Y881D02*
Y902D01*
X-2037Y906D01*
X-2028D01*
X-2024Y902D01*
Y881D01*
X-2016D02*
X-1999D01*
Y885D01*
X-2016Y902D01*
Y906D01*
X-2241Y946D02*
X-2266D01*
Y933D01*
X-2262Y929D01*
X-2253D01*
X-2249Y933D01*
Y946D01*
Y937D02*
X-2241Y929D01*
X-2262Y921D02*
X-2266Y917D01*
Y908D01*
X-2262Y904D01*
X-2257D01*
X-2253Y908D01*
Y912D01*
Y908D01*
X-2249Y904D01*
X-2245D01*
X-2241Y908D01*
Y917D01*
X-2245Y921D01*
X-2262Y896D02*
X-2266Y892D01*
Y883D01*
X-2262Y879D01*
X-2245D01*
X-2241Y883D01*
Y892D01*
X-2245Y896D01*
X-2262D01*
X-2216Y596D02*
X-2241D01*
Y583D01*
X-2237Y579D01*
X-2228D01*
X-2224Y583D01*
Y596D01*
Y587D02*
X-2216Y579D01*
Y554D02*
Y571D01*
X-2232Y554D01*
X-2237D01*
X-2241Y558D01*
Y567D01*
X-2237Y571D01*
X-2220Y546D02*
X-2216Y542D01*
Y533D01*
X-2220Y529D01*
X-2237D01*
X-2241Y533D01*
Y542D01*
X-2237Y546D01*
X-2232D01*
X-2228Y542D01*
Y529D01*
X-2181Y946D02*
X-2206D01*
Y933D01*
X-2202Y929D01*
X-2193D01*
X-2189Y933D01*
Y946D01*
Y937D02*
X-2181Y929D01*
Y904D02*
Y921D01*
X-2197Y904D01*
X-2202D01*
X-2206Y908D01*
Y917D01*
X-2202Y921D01*
X-2206Y896D02*
Y879D01*
X-2202D01*
X-2185Y896D01*
X-2181D01*
X-1967Y589D02*
X-1971Y593D01*
Y602D01*
X-1967Y606D01*
X-1950D01*
X-1946Y602D01*
Y593D01*
X-1950Y589D01*
X-1946Y564D02*
Y581D01*
X-1962Y564D01*
X-1967D01*
X-1971Y568D01*
Y577D01*
X-1967Y581D01*
X-1946Y556D02*
Y547D01*
Y552D01*
X-1971D01*
X-1967Y556D01*
X-2094Y565D02*
X-2098Y561D01*
X-2107D01*
X-2111Y565D01*
Y582D01*
X-2107Y586D01*
X-2098D01*
X-2094Y582D01*
X-2069Y586D02*
X-2086D01*
X-2069Y569D01*
Y565D01*
X-2073Y561D01*
X-2082D01*
X-2086Y565D01*
X-2061D02*
X-2057Y561D01*
X-2048D01*
X-2044Y565D01*
Y582D01*
X-2048Y586D01*
X-2057D01*
X-2061Y582D01*
Y565D01*
X-2007Y589D02*
X-2011Y593D01*
Y602D01*
X-2007Y606D01*
X-1990D01*
X-1986Y602D01*
Y593D01*
X-1990Y589D01*
X-1986Y581D02*
Y572D01*
Y577D01*
X-2011D01*
X-2007Y581D01*
X-1990Y560D02*
X-1986Y556D01*
Y547D01*
X-1990Y543D01*
X-2007D01*
X-2011Y547D01*
Y556D01*
X-2007Y560D01*
X-2002D01*
X-1998Y556D01*
Y543D01*
X-2168Y718D02*
X-2172Y723D01*
Y731D01*
X-2168Y735D01*
X-2151D01*
X-2147Y731D01*
Y723D01*
X-2151Y718D01*
X-2147Y710D02*
Y702D01*
Y706D01*
X-2172D01*
X-2168Y710D01*
Y689D02*
X-2172Y685D01*
Y677D01*
X-2168Y673D01*
X-2164D01*
X-2159Y677D01*
X-2155Y673D01*
X-2151D01*
X-2147Y677D01*
Y685D01*
X-2151Y689D01*
X-2155D01*
X-2159Y685D01*
X-2164Y689D01*
X-2168D01*
X-2159Y685D02*
Y677D01*
D55*
X-557Y365D02*
X-543D01*
X-550D01*
Y332D01*
X-543Y325D01*
X-537D01*
X-530Y332D01*
X-597Y365D02*
X-570D01*
Y345D01*
X-583Y352D01*
X-590D01*
X-597Y345D01*
Y332D01*
X-590Y325D01*
X-577D01*
X-570Y332D01*
X-610Y365D02*
Y325D01*
X-630D01*
X-637Y332D01*
Y338D01*
X-630Y345D01*
X-610D01*
X-630D01*
X-637Y352D01*
Y358D01*
X-630Y365D01*
X-610D01*
X-2857D02*
X-2843D01*
X-2850D01*
Y332D01*
X-2843Y325D01*
X-2837D01*
X-2830Y332D01*
X-2890Y325D02*
Y365D01*
X-2870Y345D01*
X-2897D01*
X-2910Y365D02*
Y325D01*
X-2930D01*
X-2937Y332D01*
Y338D01*
X-2930Y345D01*
X-2910D01*
X-2930D01*
X-2937Y352D01*
Y358D01*
X-2930Y365D01*
X-2910D01*
X-907D02*
X-893D01*
X-900D01*
Y332D01*
X-893Y325D01*
X-887D01*
X-880Y332D01*
X-920Y358D02*
X-927Y365D01*
X-940D01*
X-947Y358D01*
Y352D01*
X-940Y345D01*
X-933D01*
X-940D01*
X-947Y338D01*
Y332D01*
X-940Y325D01*
X-927D01*
X-920Y332D01*
X-960Y365D02*
Y325D01*
X-980D01*
X-987Y332D01*
Y338D01*
X-980Y345D01*
X-960D01*
X-980D01*
X-987Y352D01*
Y358D01*
X-980Y365D01*
X-960D01*
X-3207D02*
X-3193D01*
X-3200D01*
Y332D01*
X-3193Y325D01*
X-3187D01*
X-3180Y332D01*
X-3247Y325D02*
X-3220D01*
X-3247Y352D01*
Y358D01*
X-3240Y365D01*
X-3227D01*
X-3220Y358D01*
X-3260Y365D02*
Y325D01*
X-3280D01*
X-3287Y332D01*
Y338D01*
X-3280Y345D01*
X-3260D01*
X-3280D01*
X-3287Y352D01*
Y358D01*
X-3280Y365D01*
X-3260D01*
M02*
