%FSLAX23Y23*%
%MOIN*%
G70*
G01*
G75*
G04 Layer_Physical_Order=4*
G04 Layer_Color=16711680*
%ADD10R,0.050X0.125*%
%ADD11R,0.072X0.039*%
%ADD12O,0.061X0.014*%
%ADD13R,0.024X0.043*%
%ADD14O,0.037X0.010*%
%ADD15O,0.010X0.037*%
%ADD16R,0.094X0.094*%
%ADD17O,0.067X0.014*%
%ADD18O,0.010X0.028*%
%ADD19R,0.075X0.071*%
%ADD20R,0.028X0.012*%
%ADD21R,0.059X0.035*%
%ADD22R,0.035X0.039*%
%ADD23R,0.039X0.035*%
%ADD24R,0.026X0.022*%
%ADD25R,0.031X0.031*%
%ADD26R,0.063X0.031*%
%ADD27R,0.014X0.013*%
%ADD28R,0.045X0.057*%
%ADD29R,0.013X0.014*%
%ADD30R,0.045X0.071*%
%ADD31C,0.010*%
%ADD32C,0.030*%
%ADD33C,0.025*%
%ADD34R,0.101X0.030*%
%ADD35R,0.110X0.070*%
%ADD36R,0.054X0.168*%
%ADD37R,0.032X0.129*%
%ADD38C,0.028*%
%ADD39C,0.030*%
%ADD40C,0.026*%
%ADD41C,0.040*%
%ADD42C,0.048*%
G04:AMPARAMS|DCode=43|XSize=50mil|YSize=50mil|CornerRadius=0mil|HoleSize=0mil|Usage=FLASHONLY|Rotation=0.000|XOffset=0mil|YOffset=0mil|HoleType=Round|Shape=Relief|Width=10mil|Gap=6mil|Entries=4|*
%AMTHD43*
7,0,0,0.050,0.038,0.010,45*
%
%ADD43THD43*%
G04:AMPARAMS|DCode=44|XSize=44.992mil|YSize=44.992mil|CornerRadius=0mil|HoleSize=0mil|Usage=FLASHONLY|Rotation=0.000|XOffset=0mil|YOffset=0mil|HoleType=Round|Shape=Relief|Width=10mil|Gap=6mil|Entries=4|*
%AMTHD44*
7,0,0,0.045,0.033,0.010,45*
%
%ADD44THD44*%
%ADD45C,0.043*%
%ADD46O,0.026X0.010*%
%ADD47O,0.010X0.026*%
%ADD48R,0.102X0.102*%
D11*
X-785Y250D02*
D03*
Y150D02*
D03*
Y-50D02*
D03*
Y50D02*
D03*
Y-350D02*
D03*
Y-450D02*
D03*
Y-250D02*
D03*
Y-150D02*
D03*
Y-950D02*
D03*
Y-1050D02*
D03*
Y-1250D02*
D03*
Y-1150D02*
D03*
Y-750D02*
D03*
Y-850D02*
D03*
Y-650D02*
D03*
Y-550D02*
D03*
Y-1550D02*
D03*
Y-1650D02*
D03*
Y-1450D02*
D03*
Y-1350D02*
D03*
X-565D02*
D03*
Y-1450D02*
D03*
Y-1650D02*
D03*
Y-1550D02*
D03*
Y-550D02*
D03*
Y-650D02*
D03*
Y-850D02*
D03*
Y-750D02*
D03*
Y-1150D02*
D03*
Y-1250D02*
D03*
Y-1050D02*
D03*
Y-950D02*
D03*
Y-150D02*
D03*
Y-250D02*
D03*
Y-450D02*
D03*
Y-350D02*
D03*
Y50D02*
D03*
Y-50D02*
D03*
Y150D02*
D03*
Y250D02*
D03*
X-3085D02*
D03*
Y150D02*
D03*
Y-50D02*
D03*
Y50D02*
D03*
Y-350D02*
D03*
Y-450D02*
D03*
Y-250D02*
D03*
Y-150D02*
D03*
Y-950D02*
D03*
Y-1050D02*
D03*
Y-1250D02*
D03*
Y-1150D02*
D03*
Y-750D02*
D03*
Y-850D02*
D03*
Y-650D02*
D03*
Y-550D02*
D03*
Y-1550D02*
D03*
Y-1650D02*
D03*
Y-1450D02*
D03*
Y-1350D02*
D03*
X-2865D02*
D03*
Y-1450D02*
D03*
Y-1650D02*
D03*
Y-1550D02*
D03*
Y-550D02*
D03*
Y-650D02*
D03*
Y-850D02*
D03*
Y-750D02*
D03*
Y-1150D02*
D03*
Y-1250D02*
D03*
Y-1050D02*
D03*
Y-950D02*
D03*
Y-150D02*
D03*
Y-250D02*
D03*
Y-450D02*
D03*
Y-350D02*
D03*
Y50D02*
D03*
Y-50D02*
D03*
Y150D02*
D03*
Y250D02*
D03*
X-1135D02*
D03*
Y150D02*
D03*
Y-50D02*
D03*
Y50D02*
D03*
Y-350D02*
D03*
Y-450D02*
D03*
Y-250D02*
D03*
Y-150D02*
D03*
Y-950D02*
D03*
Y-1050D02*
D03*
Y-1250D02*
D03*
Y-1150D02*
D03*
Y-750D02*
D03*
Y-850D02*
D03*
Y-650D02*
D03*
Y-550D02*
D03*
Y-1550D02*
D03*
Y-1650D02*
D03*
Y-1450D02*
D03*
Y-1350D02*
D03*
X-915D02*
D03*
Y-1450D02*
D03*
Y-1650D02*
D03*
Y-1550D02*
D03*
Y-550D02*
D03*
Y-650D02*
D03*
Y-850D02*
D03*
Y-750D02*
D03*
Y-1150D02*
D03*
Y-1250D02*
D03*
Y-1050D02*
D03*
Y-950D02*
D03*
Y-150D02*
D03*
Y-250D02*
D03*
Y-450D02*
D03*
Y-350D02*
D03*
Y50D02*
D03*
Y-50D02*
D03*
Y150D02*
D03*
Y250D02*
D03*
X-3435D02*
D03*
Y150D02*
D03*
Y-50D02*
D03*
Y50D02*
D03*
Y-350D02*
D03*
Y-450D02*
D03*
Y-250D02*
D03*
Y-150D02*
D03*
Y-950D02*
D03*
Y-1050D02*
D03*
Y-1250D02*
D03*
Y-1150D02*
D03*
Y-750D02*
D03*
Y-850D02*
D03*
Y-650D02*
D03*
Y-550D02*
D03*
Y-1550D02*
D03*
Y-1650D02*
D03*
Y-1450D02*
D03*
Y-1350D02*
D03*
X-3215D02*
D03*
Y-1450D02*
D03*
Y-1650D02*
D03*
Y-1550D02*
D03*
Y-550D02*
D03*
Y-650D02*
D03*
Y-850D02*
D03*
Y-750D02*
D03*
Y-1150D02*
D03*
Y-1250D02*
D03*
Y-1050D02*
D03*
Y-950D02*
D03*
Y-150D02*
D03*
Y-250D02*
D03*
Y-450D02*
D03*
Y-350D02*
D03*
Y50D02*
D03*
Y-50D02*
D03*
Y150D02*
D03*
Y250D02*
D03*
D23*
X-2256Y768D02*
D03*
Y843D02*
D03*
X-2231Y708D02*
D03*
Y633D02*
D03*
X-2191Y843D02*
D03*
Y768D02*
D03*
X-2296Y633D02*
D03*
Y708D02*
D03*
D28*
X-2121Y631D02*
D03*
X-2050D02*
D03*
D29*
X-1961Y652D02*
D03*
Y630D02*
D03*
X-1996Y652D02*
D03*
Y630D02*
D03*
X-2120Y701D02*
D03*
Y679D02*
D03*
D31*
X-2124Y628D02*
X-2121Y631D01*
X-2231Y633D02*
X-2225Y628D01*
X-2124D01*
X-2181Y652D02*
X-2179Y654D01*
X-2180Y655D02*
X-2179Y654D01*
X-2180Y655D02*
Y680D01*
X-1800Y1050D02*
X-1668Y918D01*
Y-468D02*
Y918D01*
X-1800Y-600D02*
X-1668Y-468D01*
X-1789Y1075D02*
X-1649Y935D01*
Y-529D02*
Y935D01*
X-1755Y-635D02*
X-1649Y-529D01*
X-3125Y1075D02*
X-1789D01*
X-2345Y-50D02*
Y780D01*
X-1331Y519D02*
Y626D01*
X-1415Y435D02*
X-1331Y519D01*
X-1350Y645D02*
X-1331Y626D01*
X-1350Y645D02*
Y1375D01*
X-1300Y1425D01*
X-2180Y680D02*
X-2159Y701D01*
X-2120D01*
X-2154Y728D02*
X-2135Y746D01*
X-2194Y728D02*
X-2154D01*
X-2213Y708D02*
X-2194Y728D01*
X-1425Y1000D02*
X-1400Y1025D01*
Y1425D01*
X-1996Y581D02*
X-1961Y616D01*
X-1996Y581D02*
Y630D01*
X-1961Y616D02*
Y630D01*
X-1977Y682D02*
X-1961Y666D01*
X-1906Y746D02*
X-1785Y625D01*
X-1946Y746D02*
X-1906D01*
X-1785Y480D02*
Y625D01*
X-3165Y935D02*
X-3100Y1000D01*
X-3165Y685D02*
Y935D01*
X-3200Y1050D02*
X-1800D01*
X-1200Y1250D02*
X-818Y868D01*
Y590D02*
Y868D01*
X-1200Y1250D02*
Y1425D01*
X-818Y590D02*
X-814Y586D01*
X-3100Y1250D02*
Y1425D01*
Y1250D02*
X-2975Y1125D01*
X-1700D01*
X-1550Y975D01*
X-3200Y1250D02*
Y1425D01*
Y1250D02*
X-3050Y1100D01*
X-1550Y-575D02*
Y975D01*
X-1680Y-705D02*
X-1550Y-575D01*
X-1720Y-680D02*
X-1575Y-535D01*
Y950D01*
X-1725Y1100D02*
X-1575Y950D01*
X-3050Y1100D02*
X-1725D01*
X-2050Y995D02*
X-1977Y922D01*
X-2395Y995D02*
X-2050D01*
X-2755Y635D02*
X-2395Y995D01*
X-2067Y977D02*
X-1996Y906D01*
X-2253Y977D02*
X-2067D01*
X-2345Y885D02*
X-2253Y977D01*
X-3400Y1250D02*
X-3200Y1050D01*
X-3300Y1250D02*
X-3125Y1075D01*
X-3300Y1250D02*
Y1425D01*
X-3400Y1250D02*
Y1425D01*
X-1943Y763D02*
X-1883D01*
X-1705Y585D01*
X-2238Y-245D02*
X-2141Y-342D01*
X-2221Y-238D02*
X-2134Y-325D01*
X-2238Y-245D02*
Y-239D01*
X-2254Y-223D02*
X-2238Y-239D01*
X-2260Y-223D02*
X-2254D01*
X-2380Y-103D02*
X-2260Y-223D01*
X-2221Y-238D02*
Y-232D01*
X-2247Y-206D02*
X-2221Y-232D01*
X-2253Y-206D02*
X-2247D01*
X-2345Y-114D02*
X-2253Y-206D01*
X-2380Y-103D02*
Y50D01*
X-1977Y682D02*
Y696D01*
X-2255Y768D02*
X-2252Y766D01*
X-2106Y825D02*
X-2074D01*
X-2055Y806D02*
Y856D01*
X-2075Y825D02*
Y856D01*
X-2074Y825D02*
X-2055Y806D01*
Y696D02*
Y746D01*
X-2016Y696D02*
Y766D01*
X-2002Y752D02*
X-1977Y727D01*
X-1946D01*
X-2135Y746D02*
X-2120D01*
X-1735Y-50D02*
Y65D01*
X-1810Y-125D02*
X-1735Y-50D01*
X-2256Y765D02*
X-2255D01*
X-2036Y696D02*
Y766D01*
X-2110Y5D02*
Y475D01*
X-1880Y-0D02*
Y475D01*
X-2118Y805D02*
X-2106D01*
X-2108Y788D02*
X-2106Y786D01*
X-2050Y631D02*
X-2049D01*
X-1961Y652D02*
Y666D01*
X-2049Y631D02*
X-1996Y684D01*
X-1996Y652D02*
Y696D01*
X-1996Y684D02*
Y696D01*
X-2121Y601D02*
Y631D01*
Y601D02*
X-2085Y565D01*
X-2296Y576D02*
Y633D01*
X-1830Y805D02*
X-1805Y830D01*
X-1946Y805D02*
X-1830D01*
X-1945Y785D02*
X-1798D01*
X-1715Y868D01*
Y920D01*
X-1705Y490D02*
Y585D01*
X-1946Y766D02*
X-1943Y763D01*
X-2755Y520D02*
Y635D01*
X-2843Y432D02*
X-2755Y520D01*
X-3017Y432D02*
X-2843D01*
X-1946Y825D02*
Y904D01*
X-1930Y920D01*
X-2191Y843D02*
Y889D01*
X-2256Y843D02*
Y889D01*
X-1977Y855D02*
Y922D01*
X-2016Y855D02*
Y891D01*
X-2120Y862D02*
Y880D01*
X-1996Y855D02*
Y906D01*
X-2130Y818D02*
X-2118Y805D01*
X-2130Y818D02*
Y852D01*
X-2120Y862D01*
X-2125Y788D02*
X-2108D01*
X-2150Y814D02*
X-2125Y788D01*
X-2150Y814D02*
Y920D01*
X-2036Y855D02*
Y881D01*
X-2060Y905D02*
X-2036Y881D01*
X-2085Y905D02*
X-2060D01*
X-2075Y950D02*
X-2016Y891D01*
X-2105Y950D02*
X-2075D01*
X-2191Y889D02*
X-2190Y890D01*
X-2231Y708D02*
X-2213D01*
X-2252Y766D02*
X-2106D01*
X-2296Y708D02*
X-2231D01*
X-2134Y-325D02*
X-1975D01*
X-2023Y-342D02*
X-2012Y-353D01*
X-2141Y-342D02*
X-2023D01*
X-2345Y-50D02*
X-2310D01*
X-2345Y-114D02*
Y-50D01*
X-2520Y50D02*
X-2380D01*
Y805D01*
X-2220Y-175D02*
Y0D01*
X-2120Y701D02*
X-2080D01*
X-2075Y696D01*
X-2120Y701D02*
X-2106Y716D01*
Y727D01*
X-2120Y632D02*
Y679D01*
X-2865Y50D02*
X-2520D01*
X-2865Y-150D02*
X-2750D01*
X-2865Y-250D02*
X-2750D01*
X-2865Y-450D02*
X-2750D01*
X-2865Y-550D02*
X-2750D01*
X-2865Y-50D02*
X-2520D01*
D32*
X-2925Y-350D02*
X-2875D01*
X-3025D02*
X-2925D01*
X-3085D02*
X-3025D01*
X-3095D02*
X-3085D01*
X-2930Y150D02*
X-2865D01*
X-2975Y130D02*
Y205D01*
X-3020Y250D02*
X-2975Y205D01*
X-3435Y-50D02*
X-3325D01*
X-3215D01*
X-3435Y-450D02*
X-3325D01*
X-3215D01*
X-3435Y-850D02*
X-3325D01*
X-3215D01*
X-3435Y-1250D02*
X-3325D01*
X-3215D01*
X-3435Y-1650D02*
X-3325D01*
X-3215D01*
X-2975Y-1450D02*
X-2875D01*
X-2975Y-1250D02*
X-2875D01*
X-2975Y-950D02*
X-2875D01*
X-3025Y-650D02*
X-2875D01*
X-1025Y-150D02*
X-920D01*
X-1025Y-450D02*
X-920D01*
X-1025Y-750D02*
X-920D01*
X-1025Y-1050D02*
X-920D01*
X-1025Y-1350D02*
X-920D01*
X-785Y-1450D02*
X-675D01*
X-565D01*
X-785Y-1150D02*
X-675D01*
X-565D01*
X-675Y-850D02*
X-565D01*
X-785D02*
X-675D01*
X-785Y-550D02*
X-675D01*
X-565D01*
X-675Y-250D02*
X-565D01*
X-785D02*
X-675D01*
X-3435Y250D02*
X-3370D01*
X-3435Y150D02*
X-3370D01*
X-3435Y50D02*
X-3370D01*
X-3435Y-150D02*
X-3370D01*
X-3435Y-250D02*
X-3370D01*
X-3435Y-350D02*
X-3370D01*
X-3435Y-550D02*
X-3370D01*
X-3435Y-650D02*
X-3370D01*
X-3435Y-750D02*
X-3370D01*
X-3435Y-950D02*
X-3370D01*
X-3435Y-1050D02*
X-3370D01*
X-3435Y-1150D02*
X-3370D01*
X-3435Y-1350D02*
X-3370D01*
X-3435Y-1450D02*
X-3370D01*
X-3435Y-1550D02*
X-3370D01*
X-3280Y250D02*
X-3215D01*
X-3280Y150D02*
X-3215D01*
X-3280Y50D02*
X-3215D01*
X-3280Y-150D02*
X-3215D01*
X-3280Y-250D02*
X-3215D01*
X-3280Y-350D02*
X-3215D01*
X-3280Y-550D02*
X-3215D01*
X-3280Y-650D02*
X-3215D01*
X-3280Y-750D02*
X-3215D01*
X-3280Y-950D02*
X-3215D01*
X-3280Y-1050D02*
X-3215D01*
X-3280Y-1150D02*
X-3215D01*
X-3280Y-1350D02*
X-3215D01*
X-3280Y-1450D02*
X-3215D01*
X-3280Y-1550D02*
X-3215D01*
X-3085Y-1650D02*
X-3020D01*
X-3085Y-1550D02*
X-3020D01*
X-3085Y-1350D02*
X-3020D01*
X-3085Y-1150D02*
X-3020D01*
X-3085Y-1050D02*
X-3020D01*
X-3085Y-850D02*
X-3020D01*
X-3085Y-750D02*
X-3020D01*
X-3085Y-550D02*
X-3020D01*
X-3085Y-450D02*
X-3020D01*
X-3085Y-250D02*
X-3020D01*
X-3085Y-150D02*
X-3020D01*
X-3085Y-50D02*
X-3020D01*
X-3085Y50D02*
X-3020D01*
X-3085Y150D02*
X-3020D01*
X-3085Y250D02*
X-3020D01*
X-2930D02*
X-2865D01*
X-2930Y50D02*
X-2865D01*
X-2930Y-50D02*
X-2865D01*
X-2930Y-150D02*
X-2865D01*
X-2930Y-250D02*
X-2865D01*
X-2930Y-450D02*
X-2865D01*
X-2930Y-550D02*
X-2865D01*
X-2930Y-750D02*
X-2865D01*
X-2930Y-850D02*
X-2865D01*
X-2930Y-1050D02*
X-2865D01*
X-2930Y-1150D02*
X-2865D01*
X-2930Y-1350D02*
X-2865D01*
X-2930Y-1550D02*
X-2865D01*
X-2930Y-1650D02*
X-2865D01*
X-1135Y250D02*
X-1070D01*
X-1135Y150D02*
X-1070D01*
X-1135Y50D02*
X-1070D01*
X-1135Y-50D02*
X-1070D01*
X-1135Y-250D02*
X-1070D01*
X-1135Y-350D02*
X-1070D01*
X-1135Y-550D02*
X-1070D01*
X-1135Y-650D02*
X-1070D01*
X-1135Y-850D02*
X-1070D01*
X-1135Y-950D02*
X-1070D01*
X-1135Y-1150D02*
X-1070D01*
X-1135Y-1250D02*
X-1070D01*
X-1135Y-1450D02*
X-1070D01*
X-1135Y-1550D02*
X-1070D01*
X-1135Y-1650D02*
X-1070D01*
X-3085Y-1450D02*
X-2975D01*
X-3085Y-1250D02*
X-2975D01*
X-3085Y-950D02*
X-2975D01*
X-3085Y-650D02*
X-3025D01*
X-3095Y150D02*
Y250D01*
X-980D02*
X-915D01*
X-980Y150D02*
X-915D01*
X-980Y50D02*
X-915D01*
X-980Y-50D02*
X-915D01*
X-980Y-250D02*
X-915D01*
X-980Y-350D02*
X-915D01*
X-980Y-550D02*
X-915D01*
X-980Y-650D02*
X-915D01*
X-980Y-850D02*
X-915D01*
X-980Y-950D02*
X-915D01*
X-980Y-1150D02*
X-915D01*
X-980Y-1250D02*
X-915D01*
X-980Y-1450D02*
X-915D01*
X-980Y-1550D02*
X-915D01*
X-980Y-1650D02*
X-915D01*
X-785D02*
X-720D01*
X-630D02*
X-565D01*
X-630Y-1550D02*
X-565D01*
X-785D02*
X-720D01*
X-785Y-1350D02*
X-720D01*
X-630D02*
X-565D01*
X-630Y-1250D02*
X-565D01*
X-785D02*
X-720D01*
X-785Y-1050D02*
X-720D01*
X-630D02*
X-565D01*
X-630Y-950D02*
X-565D01*
X-785D02*
X-720D01*
X-785Y-750D02*
X-720D01*
X-785Y-650D02*
X-720D01*
X-630Y-750D02*
X-565D01*
X-630Y-650D02*
X-565D01*
X-630Y-450D02*
X-565D01*
X-785D02*
X-720D01*
X-785Y-350D02*
X-720D01*
X-630D02*
X-565D01*
X-630Y-150D02*
X-565D01*
X-785D02*
X-720D01*
X-785Y-50D02*
X-720D01*
X-630D02*
X-565D01*
X-630Y50D02*
X-565D01*
X-785D02*
X-720D01*
X-630Y150D02*
X-565D01*
X-785D02*
X-720D01*
X-785Y250D02*
X-720D01*
X-630D02*
X-565D01*
X-1135Y-1350D02*
X-1025D01*
X-1135Y-1050D02*
X-1025D01*
X-1135Y-750D02*
X-1025D01*
X-1135Y-450D02*
X-1025D01*
X-1135Y-150D02*
X-1025D01*
D38*
X-2181Y652D02*
D03*
D39*
X-2380Y805D02*
D03*
X-2345Y780D02*
D03*
X-2303Y746D02*
D03*
X-2489Y-1500D02*
D03*
X-2488Y-1442D02*
D03*
X-2605Y-1555D02*
D03*
X-2605Y-1500D02*
D03*
X-2495Y-1605D02*
D03*
X-2455D02*
D03*
X-2925Y-350D02*
D03*
X-3300Y1050D02*
D03*
X-1300D02*
D03*
X-1500D02*
D03*
X-3400D02*
D03*
X-1425Y1000D02*
D03*
X-2085Y565D02*
D03*
X-2295Y520D02*
D03*
X-1400Y1425D02*
D03*
X-3100Y1000D02*
D03*
X-3165Y685D02*
D03*
X-1415Y435D02*
D03*
X-1300Y1425D02*
D03*
X-1200D02*
D03*
X-814Y586D02*
D03*
X-3100Y1425D02*
D03*
X-1680Y-705D02*
D03*
X-1755Y-635D02*
D03*
X-1720Y-680D02*
D03*
X-3200Y1425D02*
D03*
X-3300D02*
D03*
X-3400D02*
D03*
X-2975Y130D02*
D03*
X-2930Y150D02*
D03*
X-1800Y-600D02*
D03*
X-1622Y518D02*
D03*
X-1622Y843D02*
D03*
X-1356Y549D02*
D03*
X-1226D02*
D03*
X-959Y534D02*
D03*
X-955Y840D02*
D03*
X-3240Y757D02*
D03*
X-2424Y534D02*
D03*
X-3087Y518D02*
D03*
X-3087Y843D02*
D03*
X-2821Y549D02*
D03*
X-2691D02*
D03*
X-3349Y871D02*
D03*
X-2220Y-175D02*
D03*
X-1735Y65D02*
D03*
X-1810Y-125D02*
D03*
X-1720Y315D02*
D03*
X-1945Y-50D02*
D03*
X-1695Y-185D02*
D03*
Y-250D02*
D03*
X-1775Y-315D02*
D03*
Y-380D02*
D03*
X-2210Y-315D02*
D03*
Y-380D02*
D03*
X-1940Y70D02*
D03*
X-2055D02*
D03*
X-2220Y0D02*
D03*
X-2250Y75D02*
D03*
X-1880Y-0D02*
D03*
X-2115Y0D02*
D03*
X-1884Y871D02*
D03*
X-2110Y475D02*
D03*
X-1880Y475D02*
D03*
X-3017Y432D02*
D03*
X-2420Y840D02*
D03*
X-1996Y581D02*
D03*
X-2296Y576D02*
D03*
X-1715Y920D02*
D03*
X-1805Y830D02*
D03*
X-1775Y755D02*
D03*
X-1705Y490D02*
D03*
X-1785Y480D02*
D03*
X-2345Y885D02*
D03*
X-1930Y920D02*
D03*
X-2256Y889D02*
D03*
X-2120Y880D02*
D03*
X-2190Y890D02*
D03*
X-2150Y920D02*
D03*
X-2085Y905D02*
D03*
X-2105Y950D02*
D03*
X-1975Y-325D02*
D03*
X-2305Y290D02*
D03*
X-2012Y-353D02*
D03*
X-2265Y-250D02*
D03*
X-2310Y-50D02*
D03*
X-2520Y50D02*
D03*
X-2750Y-150D02*
D03*
Y-250D02*
D03*
Y-450D02*
D03*
Y-550D02*
D03*
X-2040Y-880D02*
D03*
X-1825Y-865D02*
D03*
X-2650Y-1290D02*
D03*
X-2605Y-1290D02*
D03*
X-2550Y-1205D02*
D03*
X-2380Y-1500D02*
D03*
X-2389Y-1385D02*
D03*
X-2606Y-1409D02*
D03*
X-2650Y-1460D02*
D03*
X-2495Y-1670D02*
D03*
X-2084Y-1301D02*
D03*
X-1990Y-1250D02*
D03*
X-1995Y-1465D02*
D03*
X-2170Y-1495D02*
D03*
X-2000Y-1670D02*
D03*
X-2125Y-1350D02*
D03*
X-3325Y-50D02*
D03*
Y-450D02*
D03*
Y-850D02*
D03*
Y-1250D02*
D03*
Y-1650D02*
D03*
X-2975Y-1450D02*
D03*
Y-1250D02*
D03*
Y-950D02*
D03*
X-3025Y-650D02*
D03*
Y-350D02*
D03*
X-1025Y-150D02*
D03*
Y-450D02*
D03*
Y-750D02*
D03*
Y-1050D02*
D03*
Y-1350D02*
D03*
X-675Y-1450D02*
D03*
Y-1150D02*
D03*
Y-850D02*
D03*
Y-550D02*
D03*
Y-250D02*
D03*
X-1730Y115D02*
D03*
X-2190Y-205D02*
D03*
Y-140D02*
D03*
X-632Y748D02*
D03*
X-793D02*
D03*
X-1865Y-555D02*
D03*
X-3370Y250D02*
D03*
Y150D02*
D03*
Y50D02*
D03*
Y-150D02*
D03*
Y-250D02*
D03*
Y-350D02*
D03*
Y-550D02*
D03*
Y-650D02*
D03*
Y-750D02*
D03*
Y-950D02*
D03*
Y-1050D02*
D03*
Y-1150D02*
D03*
Y-1350D02*
D03*
Y-1450D02*
D03*
Y-1550D02*
D03*
X-3280Y250D02*
D03*
Y150D02*
D03*
Y50D02*
D03*
Y-150D02*
D03*
Y-250D02*
D03*
Y-350D02*
D03*
Y-550D02*
D03*
Y-650D02*
D03*
Y-750D02*
D03*
Y-950D02*
D03*
Y-1050D02*
D03*
Y-1150D02*
D03*
Y-1350D02*
D03*
Y-1450D02*
D03*
Y-1550D02*
D03*
X-3020Y-1650D02*
D03*
Y-1550D02*
D03*
Y-1350D02*
D03*
Y-1150D02*
D03*
Y-1050D02*
D03*
Y-850D02*
D03*
Y-750D02*
D03*
Y-550D02*
D03*
Y-450D02*
D03*
Y-250D02*
D03*
Y-150D02*
D03*
Y-50D02*
D03*
Y50D02*
D03*
Y150D02*
D03*
X-2930Y250D02*
D03*
Y50D02*
D03*
Y-50D02*
D03*
Y-150D02*
D03*
Y-250D02*
D03*
Y-450D02*
D03*
Y-550D02*
D03*
Y-750D02*
D03*
Y-850D02*
D03*
Y-1050D02*
D03*
Y-1150D02*
D03*
Y-1350D02*
D03*
Y-1550D02*
D03*
Y-1650D02*
D03*
X-1070Y250D02*
D03*
Y150D02*
D03*
Y50D02*
D03*
Y-50D02*
D03*
Y-250D02*
D03*
Y-350D02*
D03*
Y-550D02*
D03*
Y-650D02*
D03*
Y-850D02*
D03*
Y-950D02*
D03*
Y-1150D02*
D03*
Y-1250D02*
D03*
Y-1450D02*
D03*
Y-1550D02*
D03*
Y-1650D02*
D03*
X-980Y250D02*
D03*
Y150D02*
D03*
Y50D02*
D03*
Y-50D02*
D03*
Y-250D02*
D03*
Y-350D02*
D03*
Y-550D02*
D03*
Y-650D02*
D03*
Y-850D02*
D03*
Y-950D02*
D03*
Y-1150D02*
D03*
Y-1250D02*
D03*
Y-1450D02*
D03*
Y-1550D02*
D03*
Y-1650D02*
D03*
X-720D02*
D03*
X-630D02*
D03*
Y-1550D02*
D03*
X-720D02*
D03*
Y-1350D02*
D03*
X-630D02*
D03*
Y-1250D02*
D03*
X-720D02*
D03*
Y-1050D02*
D03*
X-630D02*
D03*
Y-950D02*
D03*
X-720D02*
D03*
Y-750D02*
D03*
Y-650D02*
D03*
X-630Y-750D02*
D03*
Y-650D02*
D03*
Y-450D02*
D03*
X-720D02*
D03*
Y-350D02*
D03*
X-630D02*
D03*
Y-150D02*
D03*
X-720D02*
D03*
Y-50D02*
D03*
X-630D02*
D03*
Y50D02*
D03*
X-720D02*
D03*
X-630Y150D02*
D03*
X-720D02*
D03*
Y250D02*
D03*
X-630D02*
D03*
X-2520Y127D02*
D03*
Y-50D02*
D03*
Y-125D02*
D03*
D40*
X-2002Y799D02*
D03*
X-2049D02*
D03*
X-2002Y752D02*
D03*
X-2049D02*
D03*
X-2016Y-151D02*
D03*
X-1969D02*
D03*
X-2016Y-199D02*
D03*
X-1969D02*
D03*
X-2044Y-1360D02*
D03*
X-1996D02*
D03*
X-2490Y-1385D02*
D03*
D46*
X-1946Y825D02*
D03*
Y805D02*
D03*
Y786D02*
D03*
Y766D02*
D03*
Y746D02*
D03*
Y727D02*
D03*
X-2106D02*
D03*
Y746D02*
D03*
Y766D02*
D03*
Y786D02*
D03*
Y805D02*
D03*
Y825D02*
D03*
D47*
X-1977Y696D02*
D03*
X-1996D02*
D03*
X-2016D02*
D03*
X-2036D02*
D03*
X-2055D02*
D03*
X-2075D02*
D03*
Y855D02*
D03*
X-2055D02*
D03*
X-2036D02*
D03*
X-2016D02*
D03*
X-1996D02*
D03*
X-1977D02*
D03*
D48*
X-2026Y776D02*
D03*
M02*
