%FSLAX23Y23*%
%MOIN*%
G70*
G01*
G75*
G04 Layer_Color=16711935*
%ADD10R,0.050X0.125*%
%ADD11R,0.072X0.039*%
%ADD12O,0.061X0.014*%
%ADD13R,0.024X0.043*%
%ADD14O,0.037X0.010*%
%ADD15O,0.010X0.037*%
%ADD16R,0.094X0.094*%
%ADD17O,0.067X0.014*%
%ADD18O,0.010X0.028*%
%ADD19R,0.075X0.071*%
%ADD20R,0.028X0.012*%
%ADD21R,0.059X0.035*%
%ADD22R,0.035X0.039*%
%ADD23R,0.039X0.035*%
%ADD24R,0.026X0.022*%
%ADD25R,0.031X0.031*%
%ADD26R,0.063X0.031*%
%ADD27R,0.014X0.013*%
%ADD28R,0.045X0.057*%
%ADD29R,0.013X0.014*%
%ADD30R,0.045X0.071*%
%ADD31C,0.010*%
%ADD32C,0.030*%
%ADD33C,0.025*%
%ADD34R,0.101X0.030*%
%ADD35R,0.110X0.070*%
%ADD36R,0.054X0.168*%
%ADD37R,0.032X0.129*%
%ADD38C,0.028*%
%ADD39C,0.030*%
%ADD40C,0.026*%
%ADD41C,0.040*%
%ADD42C,0.048*%
G04:AMPARAMS|DCode=43|XSize=50mil|YSize=50mil|CornerRadius=0mil|HoleSize=0mil|Usage=FLASHONLY|Rotation=0.000|XOffset=0mil|YOffset=0mil|HoleType=Round|Shape=Relief|Width=10mil|Gap=6mil|Entries=4|*
%AMTHD43*
7,0,0,0.050,0.038,0.010,45*
%
%ADD43THD43*%
G04:AMPARAMS|DCode=44|XSize=44.992mil|YSize=44.992mil|CornerRadius=0mil|HoleSize=0mil|Usage=FLASHONLY|Rotation=0.000|XOffset=0mil|YOffset=0mil|HoleType=Round|Shape=Relief|Width=10mil|Gap=6mil|Entries=4|*
%AMTHD44*
7,0,0,0.045,0.033,0.010,45*
%
%ADD44THD44*%
%ADD45C,0.043*%
%ADD46O,0.026X0.010*%
%ADD47O,0.010X0.026*%
%ADD48R,0.102X0.102*%
%ADD49C,0.020*%
%ADD50C,0.024*%
%ADD51C,0.010*%
%ADD52C,0.008*%
%ADD53C,0.004*%
%ADD54C,0.004*%
%ADD55C,0.006*%
%ADD56R,0.750X0.150*%
%ADD57R,0.058X0.133*%
%ADD58R,0.080X0.047*%
%ADD59O,0.069X0.022*%
%ADD60R,0.029X0.048*%
%ADD61O,0.045X0.018*%
%ADD62O,0.018X0.045*%
%ADD63R,0.102X0.102*%
%ADD64O,0.075X0.022*%
%ADD65O,0.018X0.036*%
%ADD66R,0.083X0.079*%
%ADD67R,0.036X0.020*%
%ADD68R,0.067X0.043*%
%ADD69R,0.043X0.047*%
%ADD70R,0.047X0.043*%
%ADD71R,0.034X0.030*%
%ADD72R,0.039X0.039*%
%ADD73R,0.071X0.039*%
%ADD74R,0.022X0.021*%
%ADD75R,0.053X0.065*%
%ADD76R,0.021X0.022*%
%ADD77R,0.053X0.079*%
%ADD78O,0.034X0.018*%
%ADD79O,0.018X0.034*%
%ADD80R,0.110X0.110*%
D58*
X-785Y250D02*
D03*
Y150D02*
D03*
Y-50D02*
D03*
Y50D02*
D03*
Y-350D02*
D03*
Y-450D02*
D03*
Y-250D02*
D03*
Y-150D02*
D03*
Y-950D02*
D03*
Y-1050D02*
D03*
Y-1250D02*
D03*
Y-1150D02*
D03*
Y-750D02*
D03*
Y-850D02*
D03*
Y-650D02*
D03*
Y-550D02*
D03*
Y-1550D02*
D03*
Y-1650D02*
D03*
Y-1450D02*
D03*
Y-1350D02*
D03*
X-565D02*
D03*
Y-1450D02*
D03*
Y-1650D02*
D03*
Y-1550D02*
D03*
Y-550D02*
D03*
Y-650D02*
D03*
Y-850D02*
D03*
Y-750D02*
D03*
Y-1150D02*
D03*
Y-1250D02*
D03*
Y-1050D02*
D03*
Y-950D02*
D03*
Y-150D02*
D03*
Y-250D02*
D03*
Y-450D02*
D03*
Y-350D02*
D03*
Y50D02*
D03*
Y-50D02*
D03*
Y150D02*
D03*
Y250D02*
D03*
X-3085D02*
D03*
Y150D02*
D03*
Y-50D02*
D03*
Y50D02*
D03*
Y-350D02*
D03*
Y-450D02*
D03*
Y-250D02*
D03*
Y-150D02*
D03*
Y-950D02*
D03*
Y-1050D02*
D03*
Y-1250D02*
D03*
Y-1150D02*
D03*
Y-750D02*
D03*
Y-850D02*
D03*
Y-650D02*
D03*
Y-550D02*
D03*
Y-1550D02*
D03*
Y-1650D02*
D03*
Y-1450D02*
D03*
Y-1350D02*
D03*
X-2865D02*
D03*
Y-1450D02*
D03*
Y-1650D02*
D03*
Y-1550D02*
D03*
Y-550D02*
D03*
Y-650D02*
D03*
Y-850D02*
D03*
Y-750D02*
D03*
Y-1150D02*
D03*
Y-1250D02*
D03*
Y-1050D02*
D03*
Y-950D02*
D03*
Y-150D02*
D03*
Y-250D02*
D03*
Y-450D02*
D03*
Y-350D02*
D03*
Y50D02*
D03*
Y-50D02*
D03*
Y150D02*
D03*
Y250D02*
D03*
X-1135D02*
D03*
Y150D02*
D03*
Y-50D02*
D03*
Y50D02*
D03*
Y-350D02*
D03*
Y-450D02*
D03*
Y-250D02*
D03*
Y-150D02*
D03*
Y-950D02*
D03*
Y-1050D02*
D03*
Y-1250D02*
D03*
Y-1150D02*
D03*
Y-750D02*
D03*
Y-850D02*
D03*
Y-650D02*
D03*
Y-550D02*
D03*
Y-1550D02*
D03*
Y-1650D02*
D03*
Y-1450D02*
D03*
Y-1350D02*
D03*
X-915D02*
D03*
Y-1450D02*
D03*
Y-1650D02*
D03*
Y-1550D02*
D03*
Y-550D02*
D03*
Y-650D02*
D03*
Y-850D02*
D03*
Y-750D02*
D03*
Y-1150D02*
D03*
Y-1250D02*
D03*
Y-1050D02*
D03*
Y-950D02*
D03*
Y-150D02*
D03*
Y-250D02*
D03*
Y-450D02*
D03*
Y-350D02*
D03*
Y50D02*
D03*
Y-50D02*
D03*
Y150D02*
D03*
Y250D02*
D03*
X-3435D02*
D03*
Y150D02*
D03*
Y-50D02*
D03*
Y50D02*
D03*
Y-350D02*
D03*
Y-450D02*
D03*
Y-250D02*
D03*
Y-150D02*
D03*
Y-950D02*
D03*
Y-1050D02*
D03*
Y-1250D02*
D03*
Y-1150D02*
D03*
Y-750D02*
D03*
Y-850D02*
D03*
Y-650D02*
D03*
Y-550D02*
D03*
Y-1550D02*
D03*
Y-1650D02*
D03*
Y-1450D02*
D03*
Y-1350D02*
D03*
X-3215D02*
D03*
Y-1450D02*
D03*
Y-1650D02*
D03*
Y-1550D02*
D03*
Y-550D02*
D03*
Y-650D02*
D03*
Y-850D02*
D03*
Y-750D02*
D03*
Y-1150D02*
D03*
Y-1250D02*
D03*
Y-1050D02*
D03*
Y-950D02*
D03*
Y-150D02*
D03*
Y-250D02*
D03*
Y-450D02*
D03*
Y-350D02*
D03*
Y50D02*
D03*
Y-50D02*
D03*
Y150D02*
D03*
Y250D02*
D03*
D70*
X-2256Y768D02*
D03*
Y843D02*
D03*
X-2231Y708D02*
D03*
Y633D02*
D03*
X-2191Y843D02*
D03*
Y768D02*
D03*
X-2296Y633D02*
D03*
Y708D02*
D03*
D75*
X-2121Y631D02*
D03*
X-2050D02*
D03*
D76*
X-1961Y652D02*
D03*
Y630D02*
D03*
X-1996Y652D02*
D03*
Y630D02*
D03*
X-2120Y701D02*
D03*
Y679D02*
D03*
D78*
X-1946Y825D02*
D03*
Y805D02*
D03*
Y786D02*
D03*
Y766D02*
D03*
Y746D02*
D03*
Y727D02*
D03*
X-2106D02*
D03*
Y746D02*
D03*
Y766D02*
D03*
Y786D02*
D03*
Y805D02*
D03*
Y825D02*
D03*
D79*
X-1977Y696D02*
D03*
X-1996D02*
D03*
X-2016D02*
D03*
X-2036D02*
D03*
X-2055D02*
D03*
X-2075D02*
D03*
Y855D02*
D03*
X-2055D02*
D03*
X-2036D02*
D03*
X-2016D02*
D03*
X-1996D02*
D03*
X-1977D02*
D03*
D80*
X-2026Y776D02*
D03*
M02*
